<?xml version="1.0" encoding="UTF-8"?>
<svg xmlns="http://www.w3.org/2000/svg" xmlns:xlink="http://www.w3.org/1999/xlink" width="595.275591" height="841.889764" viewBox="0 0 595.275591 841.889764">
<rect x="-59.527559" y="-84.188976" width="714.330709" height="1010.267717" fill="rgb(100%, 100%, 100%)" fill-opacity="1"/>
<path fill="none" stroke-width="9" stroke-linecap="round" stroke-linejoin="round" stroke="rgb(0%, 0%, 0%)" stroke-opacity="1" stroke-miterlimit="10" d="M 22467.96875 26992.447917 C 22467.96875 27148.958333 22341.145833 27276.041667 22184.375 27276.041667 C 22027.864583 27276.041667 21901.041667 27148.958333 21901.041667 26992.447917 C 21901.041667 26835.9375 22027.864583 26709.114583 22184.375 26709.114583 C 22341.145833 26709.114583 22467.96875 26835.9375 22467.96875 26992.447917 Z M 22467.96875 26992.447917 " transform="matrix(0.015, 0, 0, 0.015, 0, 0)"/>
<path fill="none" stroke-width="9" stroke-linecap="round" stroke-linejoin="round" stroke="rgb(0%, 0%, 0%)" stroke-opacity="1" stroke-miterlimit="10" d="M 34179.947917 26992.447917 C 34179.947917 27148.958333 34053.125 27276.041667 33896.614583 27276.041667 C 33739.84375 27276.041667 33613.020833 27148.958333 33613.020833 26992.447917 C 33613.020833 26835.9375 33739.84375 26709.114583 33896.614583 26709.114583 C 34053.125 26709.114583 34179.947917 26835.9375 34179.947917 26992.447917 Z M 34179.947917 26992.447917 " transform="matrix(0.015, 0, 0, 0.015, 0, 0)"/>
<path fill="none" stroke-width="9" stroke-linecap="round" stroke-linejoin="round" stroke="rgb(0%, 0%, 0%)" stroke-opacity="1" stroke-miterlimit="10" d="M 28896.875 13024.479167 C 28896.875 13193.229167 28807.03125 13349.21875 28660.677083 13433.59375 C 28514.583333 13518.229167 28334.375 13518.229167 28188.28125 13433.59375 C 28042.1875 13349.21875 27952.083333 13193.229167 27952.083333 13024.479167 C 27952.083333 12855.729167 28042.1875 12699.739583 28188.28125 12615.364583 C 28334.375 12530.989583 28514.583333 12530.989583 28660.677083 12615.364583 C 28807.03125 12699.739583 28896.875 12855.729167 28896.875 13024.479167 Z M 28896.875 13024.479167 " transform="matrix(0.015, 0, 0, 0.015, 0, 0)"/>
<path fill="none" stroke-width="9" stroke-linecap="round" stroke-linejoin="round" stroke="rgb(0%, 0%, 0%)" stroke-opacity="1" stroke-miterlimit="10" d="M 21608.59375 12112.5 L 34520.572917 12112.5 " transform="matrix(0.015, 0, 0, 0.015, 0, 0)"/>
<path fill="none" stroke-width="9" stroke-linecap="round" stroke-linejoin="round" stroke="rgb(0%, 0%, 0%)" stroke-opacity="1" stroke-miterlimit="10" d="M 34520.572917 12112.5 L 34520.572917 27568.489583 " transform="matrix(0.015, 0, 0, 0.015, 0, 0)"/>
<path fill="none" stroke-width="9" stroke-linecap="round" stroke-linejoin="round" stroke="rgb(0%, 0%, 0%)" stroke-opacity="1" stroke-miterlimit="10" d="M 34520.572917 27568.489583 L 21608.59375 27568.489583 " transform="matrix(0.015, 0, 0, 0.015, 0, 0)"/>
<path fill="none" stroke-width="9" stroke-linecap="round" stroke-linejoin="round" stroke="rgb(0%, 0%, 0%)" stroke-opacity="1" stroke-miterlimit="10" d="M 21608.59375 27568.489583 L 21608.59375 12112.5 " transform="matrix(0.015, 0, 0, 0.015, 0, 0)"/>
<path fill="none" stroke-width="151" stroke-linecap="round" stroke-linejoin="round" stroke="rgb(0%, 0%, 0%)" stroke-opacity="1" stroke-miterlimit="10" d="M 25382.552083 23413.541667 L 25382.552083 25795.572917 " transform="matrix(0.015, 0, 0, 0.015, 0, 0)"/>
<path fill="none" stroke-width="151" stroke-linecap="round" stroke-linejoin="round" stroke="rgb(0%, 0%, 0%)" stroke-opacity="1" stroke-miterlimit="10" d="M 23105.46875 25786.458333 L 23303.385417 25984.375 " transform="matrix(0.015, 0, 0, 0.015, 0, 0)"/>
<path fill="none" stroke-width="151" stroke-linecap="round" stroke-linejoin="round" stroke="rgb(0%, 0%, 0%)" stroke-opacity="1" stroke-miterlimit="10" d="M 23105.46875 23404.427083 L 23105.46875 25786.458333 " transform="matrix(0.015, 0, 0, 0.015, 0, 0)"/>
<path fill="none" stroke-width="151" stroke-linecap="round" stroke-linejoin="round" stroke="rgb(0%, 0%, 0%)" stroke-opacity="1" stroke-miterlimit="10" d="M 25382.552083 25795.572917 L 25193.489583 25984.375 " transform="matrix(0.015, 0, 0, 0.015, 0, 0)"/>
<path fill="none" stroke-width="151" stroke-linecap="round" stroke-linejoin="round" stroke="rgb(0%, 0%, 0%)" stroke-opacity="1" stroke-miterlimit="10" d="M 27039.583333 21343.489583 L 27039.583333 23180.46875 " transform="matrix(0.015, 0, 0, 0.015, 0, 0)"/>
<path fill="none" stroke-width="151" stroke-linecap="round" stroke-linejoin="round" stroke="rgb(0%, 0%, 0%)" stroke-opacity="1" stroke-miterlimit="10" d="M 26148.4375 23180.46875 L 26799.479167 23180.46875 " transform="matrix(0.015, 0, 0, 0.015, 0, 0)"/>
<path fill="none" stroke-width="151" stroke-linecap="round" stroke-linejoin="round" stroke="rgb(0%, 0%, 0%)" stroke-opacity="1" stroke-miterlimit="10" d="M 25352.604167 22384.375 L 26148.4375 23180.46875 " transform="matrix(0.015, 0, 0, 0.015, 0, 0)"/>
<path fill="none" stroke-width="151" stroke-linecap="round" stroke-linejoin="round" stroke="rgb(0%, 0%, 0%)" stroke-opacity="1" stroke-miterlimit="10" d="M 25372.395833 22364.583333 L 25352.604167 22384.375 " transform="matrix(0.015, 0, 0, 0.015, 0, 0)"/>
<path fill="none" stroke-width="151" stroke-linecap="round" stroke-linejoin="round" stroke="rgb(0%, 0%, 0%)" stroke-opacity="1" stroke-miterlimit="10" d="M 25372.395833 21098.4375 L 25372.395833 22364.583333 " transform="matrix(0.015, 0, 0, 0.015, 0, 0)"/>
<path fill="none" stroke-width="151" stroke-linecap="round" stroke-linejoin="round" stroke="rgb(0%, 0%, 0%)" stroke-opacity="1" stroke-miterlimit="10" d="M 23105.46875 21098.4375 L 23105.46875 19748.4375 " transform="matrix(0.015, 0, 0, 0.015, 0, 0)"/>
<path fill="none" stroke-width="151" stroke-linecap="round" stroke-linejoin="round" stroke="rgb(0%, 0%, 0%)" stroke-opacity="1" stroke-miterlimit="10" d="M 25372.395833 19825.520833 L 25160.416667 19613.541667 " transform="matrix(0.015, 0, 0, 0.015, 0, 0)"/>
<path fill="none" stroke-width="151" stroke-linecap="round" stroke-linejoin="round" stroke="rgb(0%, 0%, 0%)" stroke-opacity="1" stroke-miterlimit="10" d="M 25372.395833 21098.4375 L 25372.395833 19825.520833 " transform="matrix(0.015, 0, 0, 0.015, 0, 0)"/>
<path fill="none" stroke-width="151" stroke-linecap="round" stroke-linejoin="round" stroke="rgb(0%, 0%, 0%)" stroke-opacity="1" stroke-miterlimit="10" d="M 23105.46875 19748.4375 L 23240.625 19613.541667 " transform="matrix(0.015, 0, 0, 0.015, 0, 0)"/>
<path fill="none" stroke-width="151" stroke-linecap="round" stroke-linejoin="round" stroke="rgb(0%, 0%, 0%)" stroke-opacity="1" stroke-miterlimit="10" d="M 24248.4375 20730.46875 L 24248.4375 25984.375 " transform="matrix(0.015, 0, 0, 0.015, 0, 0)"/>
<path fill="none" stroke-width="151" stroke-linecap="round" stroke-linejoin="round" stroke="rgb(0%, 0%, 0%)" stroke-opacity="1" stroke-miterlimit="10" d="M 27612.5 25884.375 L 27612.5 25984.375 " transform="matrix(0.015, 0, 0, 0.015, 0, 0)"/>
<path fill="none" stroke-width="151" stroke-linecap="round" stroke-linejoin="round" stroke="rgb(0%, 0%, 0%)" stroke-opacity="1" stroke-miterlimit="10" d="M 27992.447917 25504.427083 L 27612.5 25884.375 " transform="matrix(0.015, 0, 0, 0.015, 0, 0)"/>
<path fill="none" stroke-width="151" stroke-linecap="round" stroke-linejoin="round" stroke="rgb(0%, 0%, 0%)" stroke-opacity="1" stroke-miterlimit="10" d="M 27992.447917 18198.4375 L 27992.447917 25504.427083 " transform="matrix(0.015, 0, 0, 0.015, 0, 0)"/>
<path fill="none" stroke-width="151" stroke-linecap="round" stroke-linejoin="round" stroke="rgb(0%, 0%, 0%)" stroke-opacity="1" stroke-miterlimit="10" d="M 27415.625 23316.40625 L 27279.427083 23180.46875 " transform="matrix(0.015, 0, 0, 0.015, 0, 0)"/>
<path fill="none" stroke-width="151" stroke-linecap="round" stroke-linejoin="round" stroke="rgb(0%, 0%, 0%)" stroke-opacity="1" stroke-miterlimit="10" d="M 33014.583333 23413.541667 L 33014.583333 25795.572917 " transform="matrix(0.015, 0, 0, 0.015, 0, 0)"/>
<path fill="none" stroke-width="151" stroke-linecap="round" stroke-linejoin="round" stroke="rgb(0%, 0%, 0%)" stroke-opacity="1" stroke-miterlimit="10" d="M 31880.46875 20730.46875 L 31880.46875 25984.375 " transform="matrix(0.015, 0, 0, 0.015, 0, 0)"/>
<path fill="none" stroke-width="151" stroke-linecap="round" stroke-linejoin="round" stroke="rgb(0%, 0%, 0%)" stroke-opacity="1" stroke-miterlimit="10" d="M 33848.4375 21942.447917 L 33004.427083 21098.4375 " transform="matrix(0.015, 0, 0, 0.015, 0, 0)"/>
<path fill="none" stroke-width="151" stroke-linecap="round" stroke-linejoin="round" stroke="rgb(0%, 0%, 0%)" stroke-opacity="1" stroke-miterlimit="10" d="M 33848.4375 26224.479167 L 33848.4375 21942.447917 " transform="matrix(0.015, 0, 0, 0.015, 0, 0)"/>
<path fill="none" stroke-width="151" stroke-linecap="round" stroke-linejoin="round" stroke="rgb(0%, 0%, 0%)" stroke-opacity="1" stroke-miterlimit="10" d="M 33014.583333 25795.572917 L 32825.520833 25984.375 " transform="matrix(0.015, 0, 0, 0.015, 0, 0)"/>
<path fill="none" stroke-width="151" stroke-linecap="round" stroke-linejoin="round" stroke="rgb(0%, 0%, 0%)" stroke-opacity="1" stroke-miterlimit="10" d="M 26098.4375 18375.520833 L 26098.4375 19613.541667 " transform="matrix(0.015, 0, 0, 0.015, 0, 0)"/>
<path fill="none" stroke-width="151" stroke-linecap="round" stroke-linejoin="round" stroke="rgb(0%, 0%, 0%)" stroke-opacity="1" stroke-miterlimit="10" d="M 26894.53125 17579.427083 L 26098.4375 18375.520833 " transform="matrix(0.015, 0, 0, 0.015, 0, 0)"/>
<path fill="none" stroke-width="151" stroke-linecap="round" stroke-linejoin="round" stroke="rgb(0%, 0%, 0%)" stroke-opacity="1" stroke-miterlimit="10" d="M 28418.489583 18144.53125 L 28418.489583 19613.541667 " transform="matrix(0.015, 0, 0, 0.015, 0, 0)"/>
<path fill="none" stroke-width="151" stroke-linecap="round" stroke-linejoin="round" stroke="rgb(0%, 0%, 0%)" stroke-opacity="1" stroke-miterlimit="10" d="M 27854.427083 17579.427083 L 28418.489583 18144.53125 " transform="matrix(0.015, 0, 0, 0.015, 0, 0)"/>
<path fill="none" stroke-width="151" stroke-linecap="round" stroke-linejoin="round" stroke="rgb(0%, 0%, 0%)" stroke-opacity="1" stroke-miterlimit="10" d="M 27374.479167 17579.427083 L 27992.447917 18198.4375 " transform="matrix(0.015, 0, 0, 0.015, 0, 0)"/>
<path fill="none" stroke-width="151" stroke-linecap="round" stroke-linejoin="round" stroke="rgb(0%, 0%, 0%)" stroke-opacity="1" stroke-miterlimit="10" d="M 29089.583333 21343.489583 L 29089.583333 23316.40625 " transform="matrix(0.015, 0, 0, 0.015, 0, 0)"/>
<path fill="none" stroke-width="151" stroke-linecap="round" stroke-linejoin="round" stroke="rgb(0%, 0%, 0%)" stroke-opacity="1" stroke-miterlimit="10" d="M 30737.5 22327.604167 L 30737.5 21098.4375 " transform="matrix(0.015, 0, 0, 0.015, 0, 0)"/>
<path fill="none" stroke-width="151" stroke-linecap="round" stroke-linejoin="round" stroke="rgb(0%, 0%, 0%)" stroke-opacity="1" stroke-miterlimit="10" d="M 29748.4375 23316.40625 L 30737.5 22327.604167 " transform="matrix(0.015, 0, 0, 0.015, 0, 0)"/>
<path fill="none" stroke-width="151" stroke-linecap="round" stroke-linejoin="round" stroke="rgb(0%, 0%, 0%)" stroke-opacity="1" stroke-miterlimit="10" d="M 29329.427083 23316.40625 L 29748.4375 23316.40625 " transform="matrix(0.015, 0, 0, 0.015, 0, 0)"/>
<path fill="none" stroke-width="151" stroke-linecap="round" stroke-linejoin="round" stroke="rgb(0%, 0%, 0%)" stroke-opacity="1" stroke-miterlimit="10" d="M 28849.479167 23316.40625 L 27415.625 23316.40625 " transform="matrix(0.015, 0, 0, 0.015, 0, 0)"/>
<path fill="none" stroke-width="151" stroke-linecap="round" stroke-linejoin="round" stroke="rgb(0%, 0%, 0%)" stroke-opacity="1" stroke-miterlimit="10" d="M 33004.427083 19901.5625 L 32716.40625 19613.541667 " transform="matrix(0.015, 0, 0, 0.015, 0, 0)"/>
<path fill="none" stroke-width="151" stroke-linecap="round" stroke-linejoin="round" stroke="rgb(0%, 0%, 0%)" stroke-opacity="1" stroke-miterlimit="10" d="M 33004.427083 21098.4375 L 33004.427083 19901.5625 " transform="matrix(0.015, 0, 0, 0.015, 0, 0)"/>
<path fill="none" stroke-width="151" stroke-linecap="round" stroke-linejoin="round" stroke="rgb(0%, 0%, 0%)" stroke-opacity="1" stroke-miterlimit="10" d="M 30737.5 19672.395833 L 30796.614583 19613.541667 " transform="matrix(0.015, 0, 0, 0.015, 0, 0)"/>
<path fill="none" stroke-width="151" stroke-linecap="round" stroke-linejoin="round" stroke="rgb(0%, 0%, 0%)" stroke-opacity="1" stroke-miterlimit="10" d="M 30737.5 21098.4375 L 30737.5 19672.395833 " transform="matrix(0.015, 0, 0, 0.015, 0, 0)"/>
<path fill="none" stroke-width="151" stroke-linecap="round" stroke-linejoin="round" stroke="rgb(0%, 0%, 0%)" stroke-opacity="1" stroke-miterlimit="10" d="M 29858.59375 20094.53125 L 29089.583333 20863.541667 " transform="matrix(0.015, 0, 0, 0.015, 0, 0)"/>
<path fill="none" stroke-width="151" stroke-linecap="round" stroke-linejoin="round" stroke="rgb(0%, 0%, 0%)" stroke-opacity="1" stroke-miterlimit="10" d="M 29858.59375 19613.541667 L 29858.59375 20094.53125 " transform="matrix(0.015, 0, 0, 0.015, 0, 0)"/>
<path fill="none" stroke-width="151" stroke-linecap="round" stroke-linejoin="round" stroke="rgb(0%, 0%, 0%)" stroke-opacity="1" stroke-miterlimit="10" d="M 27538.541667 20365.625 L 27039.583333 20863.541667 " transform="matrix(0.015, 0, 0, 0.015, 0, 0)"/>
<path fill="none" stroke-width="151" stroke-linecap="round" stroke-linejoin="round" stroke="rgb(0%, 0%, 0%)" stroke-opacity="1" stroke-miterlimit="10" d="M 27538.541667 19613.541667 L 27538.541667 20365.625 " transform="matrix(0.015, 0, 0, 0.015, 0, 0)"/>
<path fill="none" stroke-width="151" stroke-linecap="round" stroke-linejoin="round" stroke="rgb(0%, 0%, 0%)" stroke-opacity="1" stroke-miterlimit="10" d="M 27740.625 26800.520833 L 28556.510417 25984.375 " transform="matrix(0.015, 0, 0, 0.015, 0, 0)"/>
<path fill="none" stroke-width="151" stroke-linecap="round" stroke-linejoin="round" stroke="rgb(0%, 0%, 0%)" stroke-opacity="1" stroke-miterlimit="10" d="M 30737.5 25786.458333 L 30935.416667 25984.375 " transform="matrix(0.015, 0, 0, 0.015, 0, 0)"/>
<path fill="none" stroke-width="151" stroke-linecap="round" stroke-linejoin="round" stroke="rgb(0%, 0%, 0%)" stroke-opacity="1" stroke-miterlimit="10" d="M 30737.5 23404.427083 L 30737.5 25786.458333 " transform="matrix(0.015, 0, 0, 0.015, 0, 0)"/>
<path fill="none" stroke-width="151" stroke-linecap="round" stroke-linejoin="round" stroke="rgb(0%, 0%, 0%)" stroke-opacity="1" stroke-miterlimit="10" d="M 33272.395833 26800.520833 L 33848.4375 26224.479167 " transform="matrix(0.015, 0, 0, 0.015, 0, 0)"/>
<path fill="none" stroke-width="151" stroke-linecap="round" stroke-linejoin="round" stroke="rgb(0%, 0%, 0%)" stroke-opacity="1" stroke-miterlimit="10" d="M 29372.395833 26800.520833 L 33272.395833 26800.520833 " transform="matrix(0.015, 0, 0, 0.015, 0, 0)"/>
<path fill="none" stroke-width="151" stroke-linecap="round" stroke-linejoin="round" stroke="rgb(0%, 0%, 0%)" stroke-opacity="1" stroke-miterlimit="10" d="M 28556.510417 25984.375 L 29372.395833 26800.520833 " transform="matrix(0.015, 0, 0, 0.015, 0, 0)"/>
<path fill="none" stroke-width="151" stroke-linecap="round" stroke-linejoin="round" stroke="rgb(0%, 0%, 0%)" stroke-opacity="1" stroke-miterlimit="10" d="M 22184.375 26128.385417 L 22856.510417 26800.520833 " transform="matrix(0.015, 0, 0, 0.015, 0, 0)"/>
<path fill="none" stroke-width="151" stroke-linecap="round" stroke-linejoin="round" stroke="rgb(0%, 0%, 0%)" stroke-opacity="1" stroke-miterlimit="10" d="M 22856.510417 26800.520833 L 27740.625 26800.520833 " transform="matrix(0.015, 0, 0, 0.015, 0, 0)"/>
<path fill="none" stroke-width="151" stroke-linecap="round" stroke-linejoin="round" stroke="rgb(0%, 0%, 0%)" stroke-opacity="1" stroke-miterlimit="10" d="M 22184.375 22019.53125 L 22184.375 26128.385417 " transform="matrix(0.015, 0, 0, 0.015, 0, 0)"/>
<path fill="none" stroke-width="151" stroke-linecap="round" stroke-linejoin="round" stroke="rgb(0%, 0%, 0%)" stroke-opacity="1" stroke-miterlimit="10" d="M 23105.46875 21098.4375 L 22184.375 22019.53125 " transform="matrix(0.015, 0, 0, 0.015, 0, 0)"/>
<path fill="none" stroke-width="19" stroke-linecap="round" stroke-linejoin="round" stroke="rgb(0%, 0%, 0%)" stroke-opacity="1" stroke-miterlimit="10" d="M 22742.447917 14878.385417 L 24632.552083 14878.385417 " transform="matrix(0.015, 0, 0, 0.015, 0, 0)"/>
<path fill="none" stroke-width="19" stroke-linecap="round" stroke-linejoin="round" stroke="rgb(0%, 0%, 0%)" stroke-opacity="1" stroke-miterlimit="10" d="M 24632.552083 14878.385417 L 24632.552083 16768.489583 " transform="matrix(0.015, 0, 0, 0.015, 0, 0)"/>
<path fill="none" stroke-width="19" stroke-linecap="round" stroke-linejoin="round" stroke="rgb(0%, 0%, 0%)" stroke-opacity="1" stroke-miterlimit="10" d="M 24632.552083 16768.489583 L 22742.447917 16768.489583 " transform="matrix(0.015, 0, 0, 0.015, 0, 0)"/>
<path fill="none" stroke-width="19" stroke-linecap="round" stroke-linejoin="round" stroke="rgb(0%, 0%, 0%)" stroke-opacity="1" stroke-miterlimit="10" d="M 22742.447917 16768.489583 L 22742.447917 14878.385417 " transform="matrix(0.015, 0, 0, 0.015, 0, 0)"/>
<path fill="none" stroke-width="57" stroke-linecap="round" stroke-linejoin="round" stroke="rgb(0%, 0%, 0%)" stroke-opacity="1" stroke-miterlimit="10" d="M 33128.385417 15554.427083 L 33128.385417 15271.614583 L 33061.458333 15271.614583 L 33020.572917 15284.375 L 32993.489583 15311.458333 L 32980.46875 15338.541667 L 32966.40625 15392.447917 L 32966.40625 15433.59375 L 32980.46875 15487.5 L 32993.489583 15514.583333 L 33020.572917 15541.40625 L 33061.458333 15554.427083 L 33128.385417 15554.427083 " transform="matrix(0.015, 0, 0, 0.015, 0, 0)"/>
<path fill="none" stroke-width="57" stroke-linecap="round" stroke-linejoin="round" stroke="rgb(0%, 0%, 0%)" stroke-opacity="1" stroke-miterlimit="10" d="M 32683.59375 15554.427083 L 32777.604167 15419.53125 " transform="matrix(0.015, 0, 0, 0.015, 0, 0)"/>
<path fill="none" stroke-width="57" stroke-linecap="round" stroke-linejoin="round" stroke="rgb(0%, 0%, 0%)" stroke-opacity="1" stroke-miterlimit="10" d="M 32845.572917 15554.427083 L 32845.572917 15271.614583 L 32737.5 15271.614583 L 32710.416667 15284.375 L 32696.614583 15298.4375 L 32683.59375 15325.520833 L 32683.59375 15365.625 L 32696.614583 15392.447917 L 32710.416667 15406.510417 L 32737.5 15419.53125 L 32845.572917 15419.53125 " transform="matrix(0.015, 0, 0, 0.015, 0, 0)"/>
<path fill="none" stroke-width="57" stroke-linecap="round" stroke-linejoin="round" stroke="rgb(0%, 0%, 0%)" stroke-opacity="1" stroke-miterlimit="10" d="M 32561.458333 15554.427083 L 32561.458333 15271.614583 " transform="matrix(0.015, 0, 0, 0.015, 0, 0)"/>
<path fill="none" stroke-width="57" stroke-linecap="round" stroke-linejoin="round" stroke="rgb(0%, 0%, 0%)" stroke-opacity="1" stroke-miterlimit="10" d="M 32426.5625 15554.427083 L 32426.5625 15271.614583 L 32318.489583 15271.614583 L 32291.40625 15284.375 L 32278.385417 15298.4375 L 32264.583333 15325.520833 L 32264.583333 15365.625 L 32278.385417 15392.447917 L 32291.40625 15406.510417 L 32318.489583 15419.53125 L 32426.5625 15419.53125 " transform="matrix(0.015, 0, 0, 0.015, 0, 0)"/>
<path fill="none" stroke-width="57" stroke-linecap="round" stroke-linejoin="round" stroke="rgb(0%, 0%, 0%)" stroke-opacity="1" stroke-miterlimit="10" d="M 31927.604167 15554.427083 L 31927.604167 15271.614583 " transform="matrix(0.015, 0, 0, 0.015, 0, 0)"/>
<path fill="none" stroke-width="57" stroke-linecap="round" stroke-linejoin="round" stroke="rgb(0%, 0%, 0%)" stroke-opacity="1" stroke-miterlimit="10" d="M 31630.46875 15554.427083 L 31724.479167 15419.53125 " transform="matrix(0.015, 0, 0, 0.015, 0, 0)"/>
<path fill="none" stroke-width="57" stroke-linecap="round" stroke-linejoin="round" stroke="rgb(0%, 0%, 0%)" stroke-opacity="1" stroke-miterlimit="10" d="M 31792.447917 15554.427083 L 31792.447917 15271.614583 L 31684.375 15271.614583 L 31657.552083 15284.375 L 31643.489583 15298.4375 L 31630.46875 15325.520833 L 31630.46875 15365.625 L 31643.489583 15392.447917 L 31657.552083 15406.510417 L 31684.375 15419.53125 L 31792.447917 15419.53125 " transform="matrix(0.015, 0, 0, 0.015, 0, 0)"/>
<path fill="none" stroke-width="57" stroke-linecap="round" stroke-linejoin="round" stroke="rgb(0%, 0%, 0%)" stroke-opacity="1" stroke-miterlimit="10" d="M 31347.395833 15554.427083 L 31441.40625 15419.53125 " transform="matrix(0.015, 0, 0, 0.015, 0, 0)"/>
<path fill="none" stroke-width="57" stroke-linecap="round" stroke-linejoin="round" stroke="rgb(0%, 0%, 0%)" stroke-opacity="1" stroke-miterlimit="10" d="M 31508.59375 15554.427083 L 31508.59375 15271.614583 L 31400.520833 15271.614583 L 31374.479167 15284.375 L 31360.416667 15298.4375 L 31347.395833 15325.520833 L 31347.395833 15365.625 L 31360.416667 15392.447917 L 31374.479167 15406.510417 L 31400.520833 15419.53125 L 31508.59375 15419.53125 " transform="matrix(0.015, 0, 0, 0.015, 0, 0)"/>
<path fill="none" stroke-width="57" stroke-linecap="round" stroke-linejoin="round" stroke="rgb(0%, 0%, 0%)" stroke-opacity="1" stroke-miterlimit="10" d="M 31225.520833 15554.427083 L 31225.520833 15271.614583 " transform="matrix(0.015, 0, 0, 0.015, 0, 0)"/>
<path fill="none" stroke-width="57" stroke-linecap="round" stroke-linejoin="round" stroke="rgb(0%, 0%, 0%)" stroke-opacity="1" stroke-miterlimit="10" d="M 30942.447917 15284.375 L 30969.53125 15271.614583 L 31009.375 15271.614583 L 31050.520833 15284.375 L 31077.604167 15311.458333 L 31090.625 15338.541667 L 31104.427083 15392.447917 L 31104.427083 15433.59375 L 31090.625 15487.5 L 31077.604167 15514.583333 L 31050.520833 15541.40625 L 31009.375 15554.427083 L 30982.552083 15554.427083 L 30942.447917 15541.40625 L 30928.385417 15527.604167 L 30928.385417 15433.59375 L 30982.552083 15433.59375 " transform="matrix(0.015, 0, 0, 0.015, 0, 0)"/>
<path fill="none" stroke-width="57" stroke-linecap="round" stroke-linejoin="round" stroke="rgb(0%, 0%, 0%)" stroke-opacity="1" stroke-miterlimit="10" d="M 30820.572917 15473.4375 L 30685.416667 15473.4375 " transform="matrix(0.015, 0, 0, 0.015, 0, 0)"/>
<path fill="none" stroke-width="57" stroke-linecap="round" stroke-linejoin="round" stroke="rgb(0%, 0%, 0%)" stroke-opacity="1" stroke-miterlimit="10" d="M 30847.395833 15554.427083 L 30753.385417 15271.614583 L 30658.59375 15554.427083 " transform="matrix(0.015, 0, 0, 0.015, 0, 0)"/>
<path fill="none" stroke-width="57" stroke-linecap="round" stroke-linejoin="round" stroke="rgb(0%, 0%, 0%)" stroke-opacity="1" stroke-miterlimit="10" d="M 30604.427083 15271.614583 L 30442.447917 15271.614583 " transform="matrix(0.015, 0, 0, 0.015, 0, 0)"/>
<path fill="none" stroke-width="57" stroke-linecap="round" stroke-linejoin="round" stroke="rgb(0%, 0%, 0%)" stroke-opacity="1" stroke-miterlimit="10" d="M 30523.4375 15554.427083 L 30523.4375 15271.614583 " transform="matrix(0.015, 0, 0, 0.015, 0, 0)"/>
<path fill="none" stroke-width="57" stroke-linecap="round" stroke-linejoin="round" stroke="rgb(0%, 0%, 0%)" stroke-opacity="1" stroke-miterlimit="10" d="M 30348.4375 15554.427083 L 30348.4375 15271.614583 " transform="matrix(0.015, 0, 0, 0.015, 0, 0)"/>
<path fill="none" stroke-width="57" stroke-linecap="round" stroke-linejoin="round" stroke="rgb(0%, 0%, 0%)" stroke-opacity="1" stroke-miterlimit="10" d="M 30159.375 15271.614583 L 30105.46875 15271.614583 L 30078.385417 15284.375 L 30051.5625 15311.458333 L 30037.5 15365.625 L 30037.5 15460.416667 L 30051.5625 15514.583333 L 30078.385417 15541.40625 L 30105.46875 15554.427083 L 30159.375 15554.427083 L 30186.458333 15541.40625 L 30213.541667 15514.583333 L 30226.5625 15460.416667 L 30226.5625 15365.625 L 30213.541667 15311.458333 L 30186.458333 15284.375 L 30159.375 15271.614583 " transform="matrix(0.015, 0, 0, 0.015, 0, 0)"/>
<path fill="none" stroke-width="57" stroke-linecap="round" stroke-linejoin="round" stroke="rgb(0%, 0%, 0%)" stroke-opacity="1" stroke-miterlimit="10" d="M 29916.40625 15554.427083 L 29916.40625 15271.614583 L 29754.427083 15554.427083 L 29754.427083 15271.614583 " transform="matrix(0.015, 0, 0, 0.015, 0, 0)"/>
<path fill="none" stroke-width="57" stroke-linecap="round" stroke-linejoin="round" stroke="rgb(0%, 0%, 0%)" stroke-opacity="1" stroke-miterlimit="10" d="M 32966.40625 15983.59375 L 32980.46875 15997.395833 L 33020.572917 16010.416667 L 33047.395833 16010.416667 L 33088.541667 15997.395833 L 33115.625 15970.572917 L 33128.385417 15943.489583 L 33142.447917 15889.583333 L 33142.447917 15848.4375 L 33128.385417 15794.53125 L 33115.625 15767.447917 L 33088.541667 15740.625 L 33047.395833 15727.604167 L 33020.572917 15727.604167 L 32980.46875 15740.625 L 32966.40625 15754.427083 " transform="matrix(0.015, 0, 0, 0.015, 0, 0)"/>
<path fill="none" stroke-width="57" stroke-linecap="round" stroke-linejoin="round" stroke="rgb(0%, 0%, 0%)" stroke-opacity="1" stroke-miterlimit="10" d="M 32791.40625 15727.604167 L 32737.5 15727.604167 L 32710.416667 15740.625 L 32683.59375 15767.447917 L 32669.53125 15821.614583 L 32669.53125 15916.40625 L 32683.59375 15970.572917 L 32710.416667 15997.395833 L 32737.5 16010.416667 L 32791.40625 16010.416667 L 32818.489583 15997.395833 L 32845.572917 15970.572917 L 32858.59375 15916.40625 L 32858.59375 15821.614583 L 32845.572917 15767.447917 L 32818.489583 15740.625 L 32791.40625 15727.604167 " transform="matrix(0.015, 0, 0, 0.015, 0, 0)"/>
<path fill="none" stroke-width="57" stroke-linecap="round" stroke-linejoin="round" stroke="rgb(0%, 0%, 0%)" stroke-opacity="1" stroke-miterlimit="10" d="M 32548.4375 16010.416667 L 32548.4375 15727.604167 L 32386.458333 16010.416667 L 32386.458333 15727.604167 " transform="matrix(0.015, 0, 0, 0.015, 0, 0)"/>
<path fill="none" stroke-width="57" stroke-linecap="round" stroke-linejoin="round" stroke="rgb(0%, 0%, 0%)" stroke-opacity="1" stroke-miterlimit="10" d="M 32291.40625 15727.604167 L 32129.427083 15727.604167 " transform="matrix(0.015, 0, 0, 0.015, 0, 0)"/>
<path fill="none" stroke-width="57" stroke-linecap="round" stroke-linejoin="round" stroke="rgb(0%, 0%, 0%)" stroke-opacity="1" stroke-miterlimit="10" d="M 32210.416667 16010.416667 L 32210.416667 15727.604167 " transform="matrix(0.015, 0, 0, 0.015, 0, 0)"/>
<path fill="none" stroke-width="57" stroke-linecap="round" stroke-linejoin="round" stroke="rgb(0%, 0%, 0%)" stroke-opacity="1" stroke-miterlimit="10" d="M 31873.4375 16010.416667 L 31967.447917 15875.520833 " transform="matrix(0.015, 0, 0, 0.015, 0, 0)"/>
<path fill="none" stroke-width="57" stroke-linecap="round" stroke-linejoin="round" stroke="rgb(0%, 0%, 0%)" stroke-opacity="1" stroke-miterlimit="10" d="M 32035.416667 16010.416667 L 32035.416667 15727.604167 L 31927.604167 15727.604167 L 31900.520833 15740.625 L 31886.458333 15754.427083 L 31873.4375 15781.510417 L 31873.4375 15821.614583 L 31886.458333 15848.4375 L 31900.520833 15862.5 L 31927.604167 15875.520833 L 32035.416667 15875.520833 " transform="matrix(0.015, 0, 0, 0.015, 0, 0)"/>
<path fill="none" stroke-width="57" stroke-linecap="round" stroke-linejoin="round" stroke="rgb(0%, 0%, 0%)" stroke-opacity="1" stroke-miterlimit="10" d="M 31697.395833 15727.604167 L 31643.489583 15727.604167 L 31616.40625 15740.625 L 31589.583333 15767.447917 L 31576.5625 15821.614583 L 31576.5625 15916.40625 L 31589.583333 15970.572917 L 31616.40625 15997.395833 L 31643.489583 16010.416667 L 31697.395833 16010.416667 L 31724.479167 15997.395833 L 31751.5625 15970.572917 L 31765.625 15916.40625 L 31765.625 15821.614583 L 31751.5625 15767.447917 L 31724.479167 15740.625 L 31697.395833 15727.604167 " transform="matrix(0.015, 0, 0, 0.015, 0, 0)"/>
<path fill="none" stroke-width="57" stroke-linecap="round" stroke-linejoin="round" stroke="rgb(0%, 0%, 0%)" stroke-opacity="1" stroke-miterlimit="10" d="M 31320.572917 16010.416667 L 31454.427083 16010.416667 L 31454.427083 15727.604167 " transform="matrix(0.015, 0, 0, 0.015, 0, 0)"/>
<path fill="none" stroke-width="57" stroke-linecap="round" stroke-linejoin="round" stroke="rgb(0%, 0%, 0%)" stroke-opacity="1" stroke-miterlimit="10" d="M 31090.625 16010.416667 L 31225.520833 16010.416667 L 31225.520833 15727.604167 " transform="matrix(0.015, 0, 0, 0.015, 0, 0)"/>
<path fill="none" stroke-width="57" stroke-linecap="round" stroke-linejoin="round" stroke="rgb(0%, 0%, 0%)" stroke-opacity="1" stroke-miterlimit="10" d="M 30996.614583 15862.5 L 30901.5625 15862.5 " transform="matrix(0.015, 0, 0, 0.015, 0, 0)"/>
<path fill="none" stroke-width="57" stroke-linecap="round" stroke-linejoin="round" stroke="rgb(0%, 0%, 0%)" stroke-opacity="1" stroke-miterlimit="10" d="M 30861.458333 16010.416667 L 30996.614583 16010.416667 L 30996.614583 15727.604167 L 30861.458333 15727.604167 " transform="matrix(0.015, 0, 0, 0.015, 0, 0)"/>
<path fill="none" stroke-width="57" stroke-linecap="round" stroke-linejoin="round" stroke="rgb(0%, 0%, 0%)" stroke-opacity="1" stroke-miterlimit="10" d="M 30577.604167 16010.416667 L 30672.395833 15875.520833 " transform="matrix(0.015, 0, 0, 0.015, 0, 0)"/>
<path fill="none" stroke-width="57" stroke-linecap="round" stroke-linejoin="round" stroke="rgb(0%, 0%, 0%)" stroke-opacity="1" stroke-miterlimit="10" d="M 30739.583333 16010.416667 L 30739.583333 15727.604167 L 30631.510417 15727.604167 L 30604.427083 15740.625 L 30591.40625 15754.427083 L 30577.604167 15781.510417 L 30577.604167 15821.614583 L 30591.40625 15848.4375 L 30604.427083 15862.5 L 30631.510417 15875.520833 L 30739.583333 15875.520833 " transform="matrix(0.015, 0, 0, 0.015, 0, 0)"/>
<path fill="none" stroke-width="57" stroke-linecap="round" stroke-linejoin="round" stroke="rgb(0%, 0%, 0%)" stroke-opacity="1" stroke-miterlimit="10" d="M 30280.46875 15727.604167 L 30186.458333 16010.416667 L 30091.40625 15727.604167 " transform="matrix(0.015, 0, 0, 0.015, 0, 0)"/>
<path fill="none" stroke-width="57" stroke-linecap="round" stroke-linejoin="round" stroke="rgb(0%, 0%, 0%)" stroke-opacity="1" stroke-miterlimit="10" d="M 30010.416667 15754.427083 L 29997.395833 15740.625 L 29970.572917 15727.604167 L 29902.604167 15727.604167 L 29875.520833 15740.625 L 29862.5 15754.427083 L 29848.4375 15781.510417 L 29848.4375 15808.59375 L 29862.5 15848.4375 L 30024.479167 16010.416667 L 29848.4375 16010.416667 " transform="matrix(0.015, 0, 0, 0.015, 0, 0)"/>
<path fill="none" stroke-width="151" stroke-linecap="round" stroke-linejoin="round" stroke="rgb(0%, 0%, 0%)" stroke-opacity="1" stroke-miterlimit="10" d="M 23240.625 14994.53125 L 23240.625 19613.541667 " transform="matrix(0.015, 0, 0, 0.015, 0, 0)"/>
<path fill="none" stroke-width="151" stroke-linecap="round" stroke-linejoin="round" stroke="rgb(0%, 0%, 0%)" stroke-opacity="1" stroke-miterlimit="10" d="M 24019.53125 14215.625 L 23240.625 14994.53125 " transform="matrix(0.015, 0, 0, 0.015, 0, 0)"/>
<path fill="none" stroke-width="57" stroke-linecap="round" stroke-linejoin="round" stroke="rgb(0%, 0%, 0%)" stroke-opacity="1" stroke-miterlimit="10" d="M 27904.427083 15866.40625 L 27931.510417 15853.385417 L 27944.53125 15826.5625 L 27944.53125 15583.59375 " transform="matrix(0.015, 0, 0, 0.015, 0, 0)"/>
<path fill="none" stroke-width="57" stroke-linecap="round" stroke-linejoin="round" stroke="rgb(0%, 0%, 0%)" stroke-opacity="1" stroke-miterlimit="10" d="M 27755.46875 15866.40625 L 27782.552083 15853.385417 L 27796.614583 15826.5625 L 27796.614583 15583.59375 " transform="matrix(0.015, 0, 0, 0.015, 0, 0)"/>
<path fill="none" stroke-width="57" stroke-linecap="round" stroke-linejoin="round" stroke="rgb(0%, 0%, 0%)" stroke-opacity="1" stroke-miterlimit="10" d="M 27526.5625 15677.604167 L 27526.5625 15866.40625 " transform="matrix(0.015, 0, 0, 0.015, 0, 0)"/>
<path fill="none" stroke-width="57" stroke-linecap="round" stroke-linejoin="round" stroke="rgb(0%, 0%, 0%)" stroke-opacity="1" stroke-miterlimit="10" d="M 27647.395833 15677.604167 L 27647.395833 15826.5625 L 27634.375 15853.385417 L 27607.552083 15866.40625 L 27566.40625 15866.40625 L 27539.583333 15853.385417 L 27526.5625 15839.583333 " transform="matrix(0.015, 0, 0, 0.015, 0, 0)"/>
<path fill="none" stroke-width="57" stroke-linecap="round" stroke-linejoin="round" stroke="rgb(0%, 0%, 0%)" stroke-opacity="1" stroke-miterlimit="10" d="M 27269.53125 15677.604167 L 27269.53125 15961.458333 " transform="matrix(0.015, 0, 0, 0.015, 0, 0)"/>
<path fill="none" stroke-width="57" stroke-linecap="round" stroke-linejoin="round" stroke="rgb(0%, 0%, 0%)" stroke-opacity="1" stroke-miterlimit="10" d="M 27269.53125 15853.385417 L 27296.614583 15866.40625 L 27350.520833 15866.40625 L 27377.604167 15853.385417 L 27391.40625 15839.583333 L 27404.427083 15812.5 L 27404.427083 15731.510417 L 27391.40625 15704.427083 L 27377.604167 15691.40625 L 27350.520833 15677.604167 L 27296.614583 15677.604167 L 27269.53125 15691.40625 " transform="matrix(0.015, 0, 0, 0.015, 0, 0)"/>
<path fill="none" stroke-width="57" stroke-linecap="round" stroke-linejoin="round" stroke="rgb(0%, 0%, 0%)" stroke-opacity="1" stroke-miterlimit="10" d="M 27013.541667 15677.604167 L 27013.541667 15866.40625 " transform="matrix(0.015, 0, 0, 0.015, 0, 0)"/>
<path fill="none" stroke-width="57" stroke-linecap="round" stroke-linejoin="round" stroke="rgb(0%, 0%, 0%)" stroke-opacity="1" stroke-miterlimit="10" d="M 27134.375 15677.604167 L 27134.375 15826.5625 L 27121.614583 15853.385417 L 27094.53125 15866.40625 L 27053.385417 15866.40625 L 27026.5625 15853.385417 L 27013.541667 15839.583333 " transform="matrix(0.015, 0, 0, 0.015, 0, 0)"/>
<path fill="none" stroke-width="57" stroke-linecap="round" stroke-linejoin="round" stroke="rgb(0%, 0%, 0%)" stroke-opacity="1" stroke-miterlimit="10" d="M 26770.572917 15853.385417 L 26797.395833 15866.40625 L 26851.5625 15866.40625 L 26878.385417 15853.385417 L 26891.40625 15826.5625 L 26891.40625 15718.489583 L 26878.385417 15691.40625 L 26851.5625 15677.604167 L 26797.395833 15677.604167 L 26770.572917 15691.40625 L 26756.510417 15718.489583 L 26756.510417 15745.572917 L 26891.40625 15772.395833 " transform="matrix(0.015, 0, 0, 0.015, 0, 0)"/>
<path fill="none" stroke-width="57" stroke-linecap="round" stroke-linejoin="round" stroke="rgb(0%, 0%, 0%)" stroke-opacity="1" stroke-miterlimit="10" d="M 26432.552083 15610.416667 L 26419.53125 15596.614583 L 26392.447917 15583.59375 L 26324.479167 15583.59375 L 26297.395833 15596.614583 L 26284.375 15610.416667 L 26270.572917 15637.5 L 26270.572917 15664.583333 L 26284.375 15704.427083 L 26446.614583 15866.40625 L 26270.572917 15866.40625 " transform="matrix(0.015, 0, 0, 0.015, 0, 0)"/>
<path fill="none" stroke-width="57" stroke-linecap="round" stroke-linejoin="round" stroke="rgb(0%, 0%, 0%)" stroke-opacity="1" stroke-miterlimit="10" d="M 26095.572917 15583.59375 L 26068.489583 15583.59375 L 26041.40625 15596.614583 L 26028.385417 15610.416667 L 26014.583333 15637.5 L 26001.5625 15691.40625 L 26001.5625 15758.59375 L 26014.583333 15812.5 L 26028.385417 15839.583333 L 26041.40625 15853.385417 L 26068.489583 15866.40625 L 26095.572917 15866.40625 L 26122.395833 15853.385417 L 26136.458333 15839.583333 L 26149.479167 15812.5 L 26163.541667 15758.59375 L 26163.541667 15691.40625 L 26149.479167 15637.5 L 26136.458333 15610.416667 L 26122.395833 15596.614583 L 26095.572917 15583.59375 " transform="matrix(0.015, 0, 0, 0.015, 0, 0)"/>
<path fill="none" stroke-width="57" stroke-linecap="round" stroke-linejoin="round" stroke="rgb(0%, 0%, 0%)" stroke-opacity="1" stroke-miterlimit="10" d="M 25893.489583 15610.416667 L 25879.427083 15596.614583 L 25852.604167 15583.59375 L 25785.416667 15583.59375 L 25758.59375 15596.614583 L 25744.53125 15610.416667 L 25731.510417 15637.5 L 25731.510417 15664.583333 L 25744.53125 15704.427083 L 25906.510417 15866.40625 L 25731.510417 15866.40625 " transform="matrix(0.015, 0, 0, 0.015, 0, 0)"/>
<path fill="none" stroke-width="57" stroke-linecap="round" stroke-linejoin="round" stroke="rgb(0%, 0%, 0%)" stroke-opacity="1" stroke-miterlimit="10" d="M 25474.479167 15583.59375 L 25609.375 15583.59375 L 25623.4375 15718.489583 L 25609.375 15704.427083 L 25582.552083 15691.40625 L 25515.625 15691.40625 L 25488.541667 15704.427083 L 25474.479167 15718.489583 L 25461.458333 15745.572917 L 25461.458333 15812.5 L 25474.479167 15839.583333 L 25488.541667 15853.385417 L 25515.625 15866.40625 L 25582.552083 15866.40625 L 25609.375 15853.385417 L 25623.4375 15839.583333 " transform="matrix(0.015, 0, 0, 0.015, 0, 0)"/>
<path fill="none" stroke-width="151" stroke-linecap="round" stroke-linejoin="round" stroke="rgb(0%, 0%, 0%)" stroke-opacity="1" stroke-miterlimit="10" d="M 21704.427083 12208.59375 L 34424.479167 12208.59375 " transform="matrix(0.015, 0, 0, 0.015, 0, 0)"/>
<path fill="none" stroke-width="151" stroke-linecap="round" stroke-linejoin="round" stroke="rgb(0%, 0%, 0%)" stroke-opacity="1" stroke-miterlimit="10" d="M 34424.479167 12208.59375 L 34424.479167 27472.395833 " transform="matrix(0.015, 0, 0, 0.015, 0, 0)"/>
<path fill="none" stroke-width="151" stroke-linecap="round" stroke-linejoin="round" stroke="rgb(0%, 0%, 0%)" stroke-opacity="1" stroke-miterlimit="10" d="M 34424.479167 27472.395833 L 21704.427083 27472.395833 " transform="matrix(0.015, 0, 0, 0.015, 0, 0)"/>
<path fill="none" stroke-width="151" stroke-linecap="round" stroke-linejoin="round" stroke="rgb(0%, 0%, 0%)" stroke-opacity="1" stroke-miterlimit="10" d="M 21704.427083 27472.395833 L 21704.427083 12208.59375 " transform="matrix(0.015, 0, 0, 0.015, 0, 0)"/>
<path fill-rule="nonzero" fill="rgb(0%, 0%, 0%)" fill-opacity="1" d="M 346.582031 386.796875 L 352.539062 386.796875 L 352.539062 392.738281 L 346.582031 392.738281 Z M 346.582031 386.796875 "/>
<path fill="none" stroke-width="94" stroke-linecap="round" stroke-linejoin="round" stroke="rgb(0%, 0%, 0%)" stroke-opacity="1" stroke-miterlimit="10" d="M 23104.947917 26182.03125 L 23502.083333 26182.03125 " transform="matrix(0.015, 0, 0, 0.015, 0, 0)"/>
<path fill="none" stroke-width="94" stroke-linecap="round" stroke-linejoin="round" stroke="rgb(0%, 0%, 0%)" stroke-opacity="1" stroke-miterlimit="10" d="M 23502.083333 26182.03125 L 23502.083333 25785.9375 " transform="matrix(0.015, 0, 0, 0.015, 0, 0)"/>
<path fill="none" stroke-width="94" stroke-linecap="round" stroke-linejoin="round" stroke="rgb(0%, 0%, 0%)" stroke-opacity="1" stroke-miterlimit="10" d="M 23502.083333 25785.9375 L 23104.947917 25785.9375 " transform="matrix(0.015, 0, 0, 0.015, 0, 0)"/>
<path fill="none" stroke-width="94" stroke-linecap="round" stroke-linejoin="round" stroke="rgb(0%, 0%, 0%)" stroke-opacity="1" stroke-miterlimit="10" d="M 23104.947917 25785.9375 L 23104.947917 26182.03125 " transform="matrix(0.015, 0, 0, 0.015, 0, 0)"/>
<path fill-rule="nonzero" fill="rgb(0%, 0%, 0%)" fill-opacity="1" d="M 384.988281 351.203125 C 384.988281 353.550781 383.085938 355.453125 380.738281 355.453125 C 378.390625 355.453125 376.484375 353.550781 376.484375 351.203125 C 376.484375 348.855469 378.390625 346.949219 380.738281 346.949219 C 383.085938 346.949219 384.988281 348.855469 384.988281 351.203125 Z M 384.988281 351.203125 "/>
<path fill-rule="nonzero" fill="rgb(0%, 0%, 0%)" fill-opacity="1" d="M 381.601562 389.765625 C 381.601562 391.808594 379.945312 393.464844 377.902344 393.464844 C 375.859375 393.464844 374.203125 391.808594 374.203125 389.765625 C 374.203125 387.726562 375.859375 386.070312 377.902344 386.070312 C 379.945312 386.070312 381.601562 387.726562 381.601562 389.765625 Z M 381.601562 389.765625 "/>
<path fill-rule="nonzero" fill="rgb(0%, 0%, 0%)" fill-opacity="1" d="M 367.425781 389.765625 C 367.425781 391.808594 365.769531 393.464844 363.726562 393.464844 C 361.683594 393.464844 360.03125 391.808594 360.03125 389.765625 C 360.03125 387.726562 361.683594 386.070312 363.726562 386.070312 C 365.769531 386.070312 367.425781 387.726562 367.425781 389.765625 Z M 367.425781 389.765625 "/>
<path fill-rule="nonzero" fill="rgb(0%, 0%, 0%)" fill-opacity="1" d="M 350.835938 351.066406 C 350.835938 353.417969 348.929688 355.320312 346.582031 355.320312 C 344.234375 355.320312 342.328125 353.417969 342.328125 351.066406 C 342.328125 348.71875 344.234375 346.816406 346.582031 346.816406 C 348.929688 346.816406 350.835938 348.71875 350.835938 351.066406 Z M 350.835938 351.066406 "/>
<path fill="none" stroke-width="198" stroke-linecap="round" stroke-linejoin="round" stroke="rgb(0%, 0%, 0%)" stroke-opacity="1" stroke-miterlimit="10" d="M 27039.0625 23221.875 L 27039.0625 23136.979167 " transform="matrix(0.015, 0, 0, 0.015, 0, 0)"/>
<path fill="none" stroke-width="198" stroke-linecap="round" stroke-linejoin="round" stroke="rgb(0%, 0%, 0%)" stroke-opacity="1" stroke-miterlimit="10" d="M 26798.958333 23221.875 L 26798.958333 23136.979167 " transform="matrix(0.015, 0, 0, 0.015, 0, 0)"/>
<path fill-rule="nonzero" fill="rgb(0%, 0%, 0%)" fill-opacity="1" d="M 411.203125 386.796875 L 417.15625 386.796875 L 417.15625 392.738281 L 411.203125 392.738281 Z M 411.203125 386.796875 "/>
<path fill="none" stroke-width="94" stroke-linecap="round" stroke-linejoin="round" stroke="rgb(0%, 0%, 0%)" stroke-opacity="1" stroke-miterlimit="10" d="M 27413.020833 26182.03125 L 27809.895833 26182.03125 " transform="matrix(0.015, 0, 0, 0.015, 0, 0)"/>
<path fill="none" stroke-width="94" stroke-linecap="round" stroke-linejoin="round" stroke="rgb(0%, 0%, 0%)" stroke-opacity="1" stroke-miterlimit="10" d="M 27809.895833 26182.03125 L 27809.895833 25785.9375 " transform="matrix(0.015, 0, 0, 0.015, 0, 0)"/>
<path fill="none" stroke-width="94" stroke-linecap="round" stroke-linejoin="round" stroke="rgb(0%, 0%, 0%)" stroke-opacity="1" stroke-miterlimit="10" d="M 27809.895833 25785.9375 L 27413.020833 25785.9375 " transform="matrix(0.015, 0, 0, 0.015, 0, 0)"/>
<path fill="none" stroke-width="94" stroke-linecap="round" stroke-linejoin="round" stroke="rgb(0%, 0%, 0%)" stroke-opacity="1" stroke-miterlimit="10" d="M 27413.020833 25785.9375 L 27413.020833 26182.03125 " transform="matrix(0.015, 0, 0, 0.015, 0, 0)"/>
<path fill="none" stroke-width="198" stroke-linecap="round" stroke-linejoin="round" stroke="rgb(0%, 0%, 0%)" stroke-opacity="1" stroke-miterlimit="10" d="M 29089.0625 23273.958333 L 29089.0625 23359.114583 " transform="matrix(0.015, 0, 0, 0.015, 0, 0)"/>
<path fill="none" stroke-width="198" stroke-linecap="round" stroke-linejoin="round" stroke="rgb(0%, 0%, 0%)" stroke-opacity="1" stroke-miterlimit="10" d="M 29328.90625 23273.958333 L 29328.90625 23359.114583 " transform="matrix(0.015, 0, 0, 0.015, 0, 0)"/>
<path fill-rule="nonzero" fill="rgb(0%, 0%, 0%)" fill-opacity="1" d="M 407.707031 345.578125 L 410.675781 345.578125 L 410.675781 349.835938 L 407.707031 349.835938 Z M 407.707031 345.578125 "/>
<path fill-rule="nonzero" fill="rgb(0%, 0%, 0%)" fill-opacity="1" d="M 432.046875 389.765625 C 432.046875 391.808594 430.390625 393.464844 428.347656 393.464844 C 426.304688 393.464844 424.648438 391.808594 424.648438 389.765625 C 424.648438 387.726562 426.304688 386.070312 428.347656 386.070312 C 430.390625 386.070312 432.046875 387.726562 432.046875 389.765625 Z M 432.046875 389.765625 "/>
<path fill-rule="nonzero" fill="rgb(0%, 0%, 0%)" fill-opacity="1" d="M 431.257812 347.617188 L 434.226562 347.617188 L 434.226562 351.878906 L 431.257812 351.878906 Z M 431.257812 347.617188 "/>
<path fill-rule="nonzero" fill="rgb(0%, 0%, 0%)" fill-opacity="1" d="M 465.074219 294.203125 C 465.074219 295.929688 463.675781 297.328125 461.949219 297.328125 C 460.21875 297.328125 458.820312 295.929688 458.820312 294.203125 C 458.820312 292.476562 460.21875 291.074219 461.949219 291.074219 C 463.675781 291.074219 465.074219 292.476562 465.074219 294.203125 Z M 465.074219 294.203125 "/>
<path fill-rule="nonzero" fill="rgb(0%, 0%, 0%)" fill-opacity="1" d="M 498.613281 316.476562 C 498.613281 318.4375 497.027344 320.023438 495.066406 320.023438 C 493.109375 320.023438 491.519531 318.4375 491.519531 316.476562 C 491.519531 314.519531 493.109375 312.929688 495.066406 312.929688 C 497.027344 312.929688 498.613281 314.519531 498.613281 316.476562 Z M 498.613281 316.476562 "/>
<path fill-rule="nonzero" fill="rgb(0%, 0%, 0%)" fill-opacity="1" d="M 464.609375 316.476562 C 464.609375 318.4375 463.023438 320.023438 461.0625 320.023438 C 459.101562 320.023438 457.515625 318.4375 457.515625 316.476562 C 457.515625 314.519531 459.101562 312.929688 461.0625 312.929688 C 463.023438 312.929688 464.609375 314.519531 464.609375 316.476562 Z M 464.609375 316.476562 "/>
<path fill-rule="nonzero" fill="rgb(0%, 0%, 0%)" fill-opacity="1" d="M 482.460938 310.957031 C 482.460938 313.304688 480.554688 315.210938 478.207031 315.210938 C 475.859375 315.210938 473.953125 313.304688 473.953125 310.957031 C 473.953125 308.609375 475.859375 306.703125 478.207031 306.703125 C 480.554688 306.703125 482.460938 308.609375 482.460938 310.957031 Z M 482.460938 310.957031 "/>
<path fill-rule="nonzero" fill="rgb(0%, 0%, 0%)" fill-opacity="1" d="M 488.332031 291.789062 L 493.164062 291.789062 L 493.164062 296.601562 L 488.332031 296.601562 Z M 488.332031 291.789062 "/>
<path fill="none" stroke-width="94" stroke-linecap="round" stroke-linejoin="round" stroke="rgb(0%, 0%, 0%)" stroke-opacity="1" stroke-miterlimit="10" d="M 32877.083333 19452.083333 L 32554.947917 19452.083333 " transform="matrix(0.015, 0, 0, 0.015, 0, 0)"/>
<path fill="none" stroke-width="94" stroke-linecap="round" stroke-linejoin="round" stroke="rgb(0%, 0%, 0%)" stroke-opacity="1" stroke-miterlimit="10" d="M 32554.947917 19452.083333 L 32554.947917 19772.916667 " transform="matrix(0.015, 0, 0, 0.015, 0, 0)"/>
<path fill="none" stroke-width="94" stroke-linecap="round" stroke-linejoin="round" stroke="rgb(0%, 0%, 0%)" stroke-opacity="1" stroke-miterlimit="10" d="M 32554.947917 19772.916667 L 32877.083333 19772.916667 " transform="matrix(0.015, 0, 0, 0.015, 0, 0)"/>
<path fill="none" stroke-width="94" stroke-linecap="round" stroke-linejoin="round" stroke="rgb(0%, 0%, 0%)" stroke-opacity="1" stroke-miterlimit="10" d="M 32877.083333 19772.916667 L 32877.083333 19452.083333 " transform="matrix(0.015, 0, 0, 0.015, 0, 0)"/>
<path fill-rule="nonzero" fill="rgb(0%, 0%, 0%)" fill-opacity="1" d="M 438.898438 312.953125 C 438.898438 314.363281 437.753906 315.511719 436.34375 315.511719 C 434.929688 315.511719 433.785156 314.363281 433.785156 312.953125 C 433.785156 311.539062 434.929688 310.394531 436.34375 310.394531 C 437.753906 310.394531 438.898438 311.539062 438.898438 312.953125 Z M 438.898438 312.953125 "/>
<path fill-rule="nonzero" fill="rgb(0%, 0%, 0%)" fill-opacity="1" d="M 408.148438 312.953125 C 408.148438 314.363281 407.003906 315.511719 405.59375 315.511719 C 404.179688 315.511719 403.035156 314.363281 403.035156 312.953125 C 403.035156 311.539062 404.179688 310.394531 405.59375 310.394531 C 407.003906 310.394531 408.148438 311.539062 408.148438 312.953125 Z M 408.148438 312.953125 "/>
<path fill-rule="nonzero" fill="rgb(0%, 0%, 0%)" fill-opacity="1" d="M 428.550781 294.203125 C 428.550781 295.457031 427.53125 296.476562 426.277344 296.476562 C 425.023438 296.476562 424.003906 295.457031 424.003906 294.203125 C 424.003906 292.949219 425.023438 291.929688 426.277344 291.929688 C 427.53125 291.929688 428.550781 292.949219 428.550781 294.203125 Z M 428.550781 294.203125 "/>
<path fill-rule="nonzero" fill="rgb(0%, 0%, 0%)" fill-opacity="1" d="M 433.792969 317.601562 L 438.890625 317.601562 L 438.890625 322.703125 L 433.792969 322.703125 Z M 433.792969 317.601562 "/>
<path fill-rule="nonzero" fill="rgb(0%, 0%, 0%)" fill-opacity="1" d="M 403.042969 317.601562 L 408.140625 317.601562 L 408.140625 322.703125 L 403.042969 322.703125 Z M 403.042969 317.601562 "/>
<path fill-rule="nonzero" fill="rgb(0%, 0%, 0%)" fill-opacity="1" d="M 450.148438 294.203125 C 450.148438 295.457031 449.132812 296.476562 447.878906 296.476562 C 446.621094 296.476562 445.605469 295.457031 445.605469 294.203125 C 445.605469 292.949219 446.621094 291.929688 447.878906 291.929688 C 449.132812 291.929688 450.148438 292.949219 450.148438 294.203125 Z M 450.148438 294.203125 "/>
<path fill-rule="nonzero" fill="rgb(0%, 0%, 0%)" fill-opacity="1" d="M 415.351562 294.203125 C 415.351562 295.457031 414.332031 296.476562 413.078125 296.476562 C 411.824219 296.476562 410.804688 295.457031 410.804688 294.203125 C 410.804688 292.949219 411.824219 291.929688 413.078125 291.929688 C 414.332031 291.929688 415.351562 292.949219 415.351562 294.203125 Z M 415.351562 294.203125 "/>
<path fill-rule="nonzero" fill="rgb(0%, 0%, 0%)" fill-opacity="1" d="M 481.90625 389.765625 C 481.90625 391.808594 480.25 393.464844 478.207031 393.464844 C 476.164062 393.464844 474.511719 391.808594 474.511719 389.765625 C 474.511719 387.726562 476.164062 386.070312 478.207031 386.070312 C 480.25 386.070312 481.90625 387.726562 481.90625 389.765625 Z M 481.90625 389.765625 "/>
<path fill-rule="nonzero" fill="rgb(0%, 0%, 0%)" fill-opacity="1" d="M 461.0625 386.796875 L 467.015625 386.796875 L 467.015625 392.738281 L 461.0625 392.738281 Z M 461.0625 386.796875 "/>
<path fill="none" stroke-width="94" stroke-linecap="round" stroke-linejoin="round" stroke="rgb(0%, 0%, 0%)" stroke-opacity="1" stroke-miterlimit="10" d="M 30736.979167 26182.03125 L 31134.114583 26182.03125 " transform="matrix(0.015, 0, 0, 0.015, 0, 0)"/>
<path fill="none" stroke-width="94" stroke-linecap="round" stroke-linejoin="round" stroke="rgb(0%, 0%, 0%)" stroke-opacity="1" stroke-miterlimit="10" d="M 31134.114583 26182.03125 L 31134.114583 25785.9375 " transform="matrix(0.015, 0, 0, 0.015, 0, 0)"/>
<path fill="none" stroke-width="94" stroke-linecap="round" stroke-linejoin="round" stroke="rgb(0%, 0%, 0%)" stroke-opacity="1" stroke-miterlimit="10" d="M 31134.114583 25785.9375 L 30736.979167 25785.9375 " transform="matrix(0.015, 0, 0, 0.015, 0, 0)"/>
<path fill="none" stroke-width="94" stroke-linecap="round" stroke-linejoin="round" stroke="rgb(0%, 0%, 0%)" stroke-opacity="1" stroke-miterlimit="10" d="M 30736.979167 25785.9375 L 30736.979167 26182.03125 " transform="matrix(0.015, 0, 0, 0.015, 0, 0)"/>
<path fill-rule="nonzero" fill="rgb(0%, 0%, 0%)" fill-opacity="1" d="M 499.46875 351.203125 C 499.46875 353.550781 497.566406 355.453125 495.21875 355.453125 C 492.867188 355.453125 490.964844 353.550781 490.964844 351.203125 C 490.964844 348.855469 492.867188 346.949219 495.21875 346.949219 C 497.566406 346.949219 499.46875 348.855469 499.46875 351.203125 Z M 499.46875 351.203125 "/>
<path fill-rule="nonzero" fill="rgb(0%, 0%, 0%)" fill-opacity="1" d="M 465.316406 351.066406 C 465.316406 353.417969 463.410156 355.320312 461.0625 355.320312 C 458.714844 355.320312 456.808594 353.417969 456.808594 351.066406 C 456.808594 348.71875 458.714844 346.816406 461.0625 346.816406 C 463.410156 346.816406 465.316406 348.71875 465.316406 351.066406 Z M 465.316406 351.066406 "/>
<path fill-rule="nonzero" fill="rgb(0%, 0%, 0%)" fill-opacity="1" d="M 496.078125 389.765625 C 496.078125 391.808594 494.425781 393.464844 492.382812 393.464844 C 490.339844 393.464844 488.683594 391.808594 488.683594 389.765625 C 488.683594 387.726562 490.339844 386.070312 492.382812 386.070312 C 494.425781 386.070312 496.078125 387.726562 496.078125 389.765625 Z M 496.078125 389.765625 "/>
<path fill-rule="nonzero" fill="rgb(0%, 0%, 0%)" fill-opacity="1" d="M 346.191406 291.789062 L 351.023438 291.789062 L 351.023438 296.601562 L 346.191406 296.601562 Z M 346.191406 291.789062 "/>
<path fill="none" stroke-width="94" stroke-linecap="round" stroke-linejoin="round" stroke="rgb(0%, 0%, 0%)" stroke-opacity="1" stroke-miterlimit="10" d="M 23078.90625 19772.916667 L 23401.041667 19772.916667 " transform="matrix(0.015, 0, 0, 0.015, 0, 0)"/>
<path fill="none" stroke-width="94" stroke-linecap="round" stroke-linejoin="round" stroke="rgb(0%, 0%, 0%)" stroke-opacity="1" stroke-miterlimit="10" d="M 23401.041667 19772.916667 L 23401.041667 19452.083333 " transform="matrix(0.015, 0, 0, 0.015, 0, 0)"/>
<path fill="none" stroke-width="94" stroke-linecap="round" stroke-linejoin="round" stroke="rgb(0%, 0%, 0%)" stroke-opacity="1" stroke-miterlimit="10" d="M 23401.041667 19452.083333 L 23078.90625 19452.083333 " transform="matrix(0.015, 0, 0, 0.015, 0, 0)"/>
<path fill="none" stroke-width="94" stroke-linecap="round" stroke-linejoin="round" stroke="rgb(0%, 0%, 0%)" stroke-opacity="1" stroke-miterlimit="10" d="M 23078.90625 19452.083333 L 23078.90625 19772.916667 " transform="matrix(0.015, 0, 0, 0.015, 0, 0)"/>
<path fill-rule="nonzero" fill="rgb(0%, 0%, 0%)" fill-opacity="1" d="M 367.980469 310.957031 C 367.980469 313.304688 366.074219 315.210938 363.726562 315.210938 C 361.378906 315.210938 359.476562 313.304688 359.476562 310.957031 C 359.476562 308.609375 361.378906 306.703125 363.726562 306.703125 C 366.074219 306.703125 367.980469 308.609375 367.980469 310.957031 Z M 367.980469 310.957031 "/>
<path fill-rule="nonzero" fill="rgb(0%, 0%, 0%)" fill-opacity="1" d="M 350.128906 316.476562 C 350.128906 318.4375 348.542969 320.023438 346.582031 320.023438 C 344.625 320.023438 343.035156 318.4375 343.035156 316.476562 C 343.035156 314.519531 344.625 312.929688 346.582031 312.929688 C 348.542969 312.929688 350.128906 314.519531 350.128906 316.476562 Z M 350.128906 316.476562 "/>
<path fill-rule="nonzero" fill="rgb(0%, 0%, 0%)" fill-opacity="1" d="M 384.136719 316.476562 C 384.136719 318.4375 382.546875 320.023438 380.585938 320.023438 C 378.628906 320.023438 377.039062 318.4375 377.039062 316.476562 C 377.039062 314.519531 378.628906 312.929688 380.585938 312.929688 C 382.546875 312.929688 384.136719 314.519531 384.136719 316.476562 Z M 384.136719 316.476562 "/>
<path fill-rule="nonzero" fill="rgb(0%, 0%, 0%)" fill-opacity="1" d="M 393.75 294.203125 C 393.75 295.457031 392.734375 296.476562 391.476562 296.476562 C 390.222656 296.476562 389.203125 295.457031 389.203125 294.203125 C 389.203125 292.949219 390.222656 291.929688 391.476562 291.929688 C 392.734375 291.929688 393.75 292.949219 393.75 294.203125 Z M 393.75 294.203125 "/>
<path fill-rule="nonzero" fill="rgb(0%, 0%, 0%)" fill-opacity="1" d="M 380.535156 294.203125 C 380.535156 295.929688 379.136719 297.328125 377.40625 297.328125 C 375.679688 297.328125 374.28125 295.929688 374.28125 294.203125 C 374.28125 292.476562 375.679688 291.074219 377.40625 291.074219 C 379.136719 291.074219 380.535156 292.476562 380.535156 294.203125 Z M 380.535156 294.203125 "/>
<path fill-rule="nonzero" fill="rgb(0%, 0%, 0%)" fill-opacity="1" d="M 405.914062 213.234375 C 405.914062 214.570312 404.832031 215.65625 403.492188 215.65625 C 402.15625 215.65625 401.070312 214.570312 401.070312 213.234375 C 401.070312 211.894531 402.15625 210.808594 403.492188 210.808594 C 404.832031 210.808594 405.914062 211.894531 405.914062 213.234375 Z M 405.914062 213.234375 "/>
<path fill-rule="nonzero" fill="rgb(0%, 0%, 0%)" fill-opacity="1" d="M 413.113281 213.234375 C 413.113281 214.570312 412.03125 215.65625 410.691406 215.65625 C 409.355469 215.65625 408.269531 214.570312 408.269531 213.234375 C 408.269531 211.894531 409.355469 210.808594 410.691406 210.808594 C 412.03125 210.808594 413.113281 211.894531 413.113281 213.234375 Z M 413.113281 213.234375 "/>
<path fill-rule="nonzero" fill="rgb(0%, 0%, 0%)" fill-opacity="1" d="M 427.515625 213.234375 C 427.515625 214.570312 426.429688 215.65625 425.09375 215.65625 C 423.753906 215.65625 422.671875 214.570312 422.671875 213.234375 C 422.671875 211.894531 423.753906 210.808594 425.09375 210.808594 C 426.429688 210.808594 427.515625 211.894531 427.515625 213.234375 Z M 427.515625 213.234375 "/>
<path fill-rule="nonzero" fill="rgb(0%, 0%, 0%)" fill-opacity="1" d="M 420.316406 213.234375 C 420.316406 214.570312 419.230469 215.65625 417.890625 215.65625 C 416.554688 215.65625 415.46875 214.570312 415.46875 213.234375 C 415.46875 211.894531 416.554688 210.808594 417.890625 210.808594 C 419.230469 210.808594 420.316406 211.894531 420.316406 213.234375 Z M 420.316406 213.234375 "/>
<path fill-rule="nonzero" fill="rgb(0%, 0%, 0%)" fill-opacity="1" d="M 398.714844 213.234375 C 398.714844 214.570312 397.628906 215.65625 396.292969 215.65625 C 394.953125 215.65625 393.871094 214.570312 393.871094 213.234375 C 393.871094 211.894531 394.953125 210.808594 396.292969 210.808594 C 397.628906 210.808594 398.714844 211.894531 398.714844 213.234375 Z M 398.714844 213.234375 "/>
<path fill-rule="nonzero" fill="rgb(0%, 0%, 0%)" fill-opacity="1" d="M 492.316406 213.234375 C 492.316406 214.570312 491.230469 215.65625 489.890625 215.65625 C 488.554688 215.65625 487.46875 214.570312 487.46875 213.234375 C 487.46875 211.894531 488.554688 210.808594 489.890625 210.808594 C 491.230469 210.808594 492.316406 211.894531 492.316406 213.234375 Z M 492.316406 213.234375 "/>
<path fill-rule="nonzero" fill="rgb(0%, 0%, 0%)" fill-opacity="1" d="M 494.691406 210.816406 L 499.507812 210.816406 L 499.507812 215.632812 L 494.691406 215.632812 Z M 494.691406 210.816406 "/>
<path fill-rule="nonzero" fill="rgb(0%, 0%, 0%)" fill-opacity="1" d="M 485.113281 213.234375 C 485.113281 214.570312 484.03125 215.65625 482.691406 215.65625 C 481.355469 215.65625 480.269531 214.570312 480.269531 213.234375 C 480.269531 211.894531 481.355469 210.808594 482.691406 210.808594 C 484.03125 210.808594 485.113281 211.894531 485.113281 213.234375 Z M 485.113281 213.234375 "/>
<path fill-rule="nonzero" fill="rgb(0%, 0%, 0%)" fill-opacity="1" d="M 477.914062 213.234375 C 477.914062 214.570312 476.832031 215.65625 475.492188 215.65625 C 474.15625 215.65625 473.070312 214.570312 473.070312 213.234375 C 473.070312 211.894531 474.15625 210.808594 475.492188 210.808594 C 476.832031 210.808594 477.914062 211.894531 477.914062 213.234375 Z M 477.914062 213.234375 "/>
<path fill-rule="nonzero" fill="rgb(0%, 0%, 0%)" fill-opacity="1" d="M 470.714844 213.234375 C 470.714844 214.570312 469.628906 215.65625 468.292969 215.65625 C 466.953125 215.65625 465.871094 214.570312 465.871094 213.234375 C 465.871094 211.894531 466.953125 210.808594 468.292969 210.808594 C 469.628906 210.808594 470.714844 211.894531 470.714844 213.234375 Z M 470.714844 213.234375 "/>
<path fill-rule="nonzero" fill="rgb(0%, 0%, 0%)" fill-opacity="1" d="M 463.441406 263.691406 C 463.441406 265.03125 462.355469 266.113281 461.015625 266.113281 C 459.679688 266.113281 458.59375 265.03125 458.59375 263.691406 C 458.59375 262.355469 459.679688 261.269531 461.015625 261.269531 C 462.355469 261.269531 463.441406 262.355469 463.441406 263.691406 Z M 463.441406 263.691406 "/>
<path fill-rule="nonzero" fill="rgb(0%, 0%, 0%)" fill-opacity="1" d="M 485.039062 263.691406 C 485.039062 265.03125 483.957031 266.113281 482.617188 266.113281 C 481.28125 266.113281 480.195312 265.03125 480.195312 263.691406 C 480.195312 262.355469 481.28125 261.269531 482.617188 261.269531 C 483.957031 261.269531 485.039062 262.355469 485.039062 263.691406 Z M 485.039062 263.691406 "/>
<path fill-rule="nonzero" fill="rgb(0%, 0%, 0%)" fill-opacity="1" d="M 492.238281 263.691406 C 492.238281 265.03125 491.15625 266.113281 489.816406 266.113281 C 488.480469 266.113281 487.394531 265.03125 487.394531 263.691406 C 487.394531 262.355469 488.480469 261.269531 489.816406 261.269531 C 491.15625 261.269531 492.238281 262.355469 492.238281 263.691406 Z M 492.238281 263.691406 "/>
<path fill-rule="nonzero" fill="rgb(0%, 0%, 0%)" fill-opacity="1" d="M 456.238281 263.691406 C 456.238281 265.03125 455.15625 266.113281 453.816406 266.113281 C 452.480469 266.113281 451.394531 265.03125 451.394531 263.691406 C 451.394531 262.355469 452.480469 261.269531 453.816406 261.269531 C 455.15625 261.269531 456.238281 262.355469 456.238281 263.691406 Z M 456.238281 263.691406 "/>
<path fill-rule="nonzero" fill="rgb(0%, 0%, 0%)" fill-opacity="1" d="M 470.640625 263.691406 C 470.640625 265.03125 469.554688 266.113281 468.21875 266.113281 C 466.878906 266.113281 465.796875 265.03125 465.796875 263.691406 C 465.796875 262.355469 466.878906 261.269531 468.21875 261.269531 C 469.554688 261.269531 470.640625 262.355469 470.640625 263.691406 Z M 470.640625 263.691406 "/>
<path fill-rule="nonzero" fill="rgb(0%, 0%, 0%)" fill-opacity="1" d="M 477.839844 263.691406 C 477.839844 265.03125 476.753906 266.113281 475.417969 266.113281 C 474.078125 266.113281 472.996094 265.03125 472.996094 263.691406 C 472.996094 262.355469 474.078125 261.269531 475.417969 261.269531 C 476.753906 261.269531 477.839844 262.355469 477.839844 263.691406 Z M 477.839844 263.691406 "/>
<path fill-rule="nonzero" fill="rgb(0%, 0%, 0%)" fill-opacity="1" d="M 499.441406 263.691406 C 499.441406 265.03125 498.355469 266.113281 497.015625 266.113281 C 495.679688 266.113281 494.59375 265.03125 494.59375 263.691406 C 494.59375 262.355469 495.679688 261.269531 497.015625 261.269531 C 498.355469 261.269531 499.441406 262.355469 499.441406 263.691406 Z M 499.441406 263.691406 "/>
<path fill-rule="nonzero" fill="rgb(0%, 0%, 0%)" fill-opacity="1" d="M 441.839844 263.691406 C 441.839844 265.03125 440.753906 266.113281 439.417969 266.113281 C 438.078125 266.113281 436.996094 265.03125 436.996094 263.691406 C 436.996094 262.355469 438.078125 261.269531 439.417969 261.269531 C 440.753906 261.269531 441.839844 262.355469 441.839844 263.691406 Z M 441.839844 263.691406 "/>
<path fill-rule="nonzero" fill="rgb(0%, 0%, 0%)" fill-opacity="1" d="M 405.839844 263.691406 C 405.839844 265.03125 404.753906 266.113281 403.417969 266.113281 C 402.078125 266.113281 400.996094 265.03125 400.996094 263.691406 C 400.996094 262.355469 402.078125 261.269531 403.417969 261.269531 C 404.753906 261.269531 405.839844 262.355469 405.839844 263.691406 Z M 405.839844 263.691406 "/>
<path fill-rule="nonzero" fill="rgb(0%, 0%, 0%)" fill-opacity="1" d="M 413.039062 263.691406 C 413.039062 265.03125 411.957031 266.113281 410.617188 266.113281 C 409.28125 266.113281 408.195312 265.03125 408.195312 263.691406 C 408.195312 262.355469 409.28125 261.269531 410.617188 261.269531 C 411.957031 261.269531 413.039062 262.355469 413.039062 263.691406 Z M 413.039062 263.691406 "/>
<path fill-rule="nonzero" fill="rgb(0%, 0%, 0%)" fill-opacity="1" d="M 420.238281 263.691406 C 420.238281 265.03125 419.15625 266.113281 417.816406 266.113281 C 416.480469 266.113281 415.394531 265.03125 415.394531 263.691406 C 415.394531 262.355469 416.480469 261.269531 417.816406 261.269531 C 419.15625 261.269531 420.238281 262.355469 420.238281 263.691406 Z M 420.238281 263.691406 "/>
<path fill-rule="nonzero" fill="rgb(0%, 0%, 0%)" fill-opacity="1" d="M 427.441406 263.691406 C 427.441406 265.03125 426.355469 266.113281 425.015625 266.113281 C 423.679688 266.113281 422.59375 265.03125 422.59375 263.691406 C 422.59375 262.355469 423.679688 261.269531 425.015625 261.269531 C 426.355469 261.269531 427.441406 262.355469 427.441406 263.691406 Z M 427.441406 263.691406 "/>
<path fill-rule="nonzero" fill="rgb(0%, 0%, 0%)" fill-opacity="1" d="M 434.640625 263.691406 C 434.640625 265.03125 433.554688 266.113281 432.21875 266.113281 C 430.878906 266.113281 429.796875 265.03125 429.796875 263.691406 C 429.796875 262.355469 430.878906 261.269531 432.21875 261.269531 C 433.554688 261.269531 434.640625 262.355469 434.640625 263.691406 Z M 434.640625 263.691406 "/>
<path fill-rule="nonzero" fill="rgb(0%, 0%, 0%)" fill-opacity="1" d="M 449.039062 263.691406 C 449.039062 265.03125 447.957031 266.113281 446.617188 266.113281 C 445.28125 266.113281 444.195312 265.03125 444.195312 263.691406 C 444.195312 262.355469 445.28125 261.269531 446.617188 261.269531 C 447.957031 261.269531 449.039062 262.355469 449.039062 263.691406 Z M 449.039062 263.691406 "/>
<path fill-rule="nonzero" fill="rgb(0%, 0%, 0%)" fill-opacity="1" d="M 391.441406 263.691406 C 391.441406 265.03125 390.355469 266.113281 389.015625 266.113281 C 387.679688 266.113281 386.59375 265.03125 386.59375 263.691406 C 386.59375 262.355469 387.679688 261.269531 389.015625 261.269531 C 390.355469 261.269531 391.441406 262.355469 391.441406 263.691406 Z M 391.441406 263.691406 "/>
<path fill-rule="nonzero" fill="rgb(0%, 0%, 0%)" fill-opacity="1" d="M 377.039062 263.691406 C 377.039062 265.03125 375.957031 266.113281 374.617188 266.113281 C 373.28125 266.113281 372.195312 265.03125 372.195312 263.691406 C 372.195312 262.355469 373.28125 261.269531 374.617188 261.269531 C 375.957031 261.269531 377.039062 262.355469 377.039062 263.691406 Z M 377.039062 263.691406 "/>
<path fill-rule="nonzero" fill="rgb(0%, 0%, 0%)" fill-opacity="1" d="M 357.800781 261.292969 L 362.617188 261.292969 L 362.617188 266.109375 L 357.800781 266.109375 Z M 357.800781 261.292969 "/>
<path fill-rule="nonzero" fill="rgb(0%, 0%, 0%)" fill-opacity="1" d="M 369.839844 263.691406 C 369.839844 265.03125 368.753906 266.113281 367.417969 266.113281 C 366.078125 266.113281 364.996094 265.03125 364.996094 263.691406 C 364.996094 262.355469 366.078125 261.269531 367.417969 261.269531 C 368.753906 261.269531 369.839844 262.355469 369.839844 263.691406 Z M 369.839844 263.691406 "/>
<path fill-rule="nonzero" fill="rgb(0%, 0%, 0%)" fill-opacity="1" d="M 384.238281 263.691406 C 384.238281 265.03125 383.15625 266.113281 381.816406 266.113281 C 380.480469 266.113281 379.394531 265.03125 379.394531 263.691406 C 379.394531 262.355469 380.480469 261.269531 381.816406 261.269531 C 383.15625 261.269531 384.238281 262.355469 384.238281 263.691406 Z M 384.238281 263.691406 "/>
<path fill-rule="nonzero" fill="rgb(0%, 0%, 0%)" fill-opacity="1" d="M 398.640625 263.691406 C 398.640625 265.03125 397.554688 266.113281 396.21875 266.113281 C 394.878906 266.113281 393.796875 265.03125 393.796875 263.691406 C 393.796875 262.355469 394.878906 261.269531 396.21875 261.269531 C 397.554688 261.269531 398.640625 262.355469 398.640625 263.691406 Z M 398.640625 263.691406 "/>
<path fill-rule="nonzero" fill="rgb(0%, 0%, 0%)" fill-opacity="1" d="M 449.113281 213.234375 C 449.113281 214.570312 448.03125 215.65625 446.691406 215.65625 C 445.355469 215.65625 444.269531 214.570312 444.269531 213.234375 C 444.269531 211.894531 445.355469 210.808594 446.691406 210.808594 C 448.03125 210.808594 449.113281 211.894531 449.113281 213.234375 Z M 449.113281 213.234375 "/>
<path fill-rule="nonzero" fill="rgb(0%, 0%, 0%)" fill-opacity="1" d="M 441.914062 213.234375 C 441.914062 214.570312 440.832031 215.65625 439.492188 215.65625 C 438.15625 215.65625 437.070312 214.570312 437.070312 213.234375 C 437.070312 211.894531 438.15625 210.808594 439.492188 210.808594 C 440.832031 210.808594 441.914062 211.894531 441.914062 213.234375 Z M 441.914062 213.234375 "/>
<path fill-rule="nonzero" fill="rgb(0%, 0%, 0%)" fill-opacity="1" d="M 463.515625 213.234375 C 463.515625 214.570312 462.429688 215.65625 461.09375 215.65625 C 459.753906 215.65625 458.671875 214.570312 458.671875 213.234375 C 458.671875 211.894531 459.753906 210.808594 461.09375 210.808594 C 462.429688 210.808594 463.515625 211.894531 463.515625 213.234375 Z M 463.515625 213.234375 "/>
<path fill-rule="nonzero" fill="rgb(0%, 0%, 0%)" fill-opacity="1" d="M 456.316406 213.234375 C 456.316406 214.570312 455.230469 215.65625 453.890625 215.65625 C 452.554688 215.65625 451.46875 214.570312 451.46875 213.234375 C 451.46875 211.894531 452.554688 210.808594 453.890625 210.808594 C 455.230469 210.808594 456.316406 211.894531 456.316406 213.234375 Z M 456.316406 213.234375 "/>
<path fill-rule="nonzero" fill="rgb(0%, 0%, 0%)" fill-opacity="1" d="M 434.714844 213.234375 C 434.714844 214.570312 433.628906 215.65625 432.292969 215.65625 C 430.953125 215.65625 429.871094 214.570312 429.871094 213.234375 C 429.871094 211.894531 430.953125 210.808594 432.292969 210.808594 C 433.628906 210.808594 434.714844 211.894531 434.714844 213.234375 Z M 434.714844 213.234375 "/>
<path fill-rule="nonzero" fill="rgb(0%, 0%, 0%)" fill-opacity="1" d="M 384.316406 213.234375 C 384.316406 214.570312 383.230469 215.65625 381.890625 215.65625 C 380.554688 215.65625 379.46875 214.570312 379.46875 213.234375 C 379.46875 211.894531 380.554688 210.808594 381.890625 210.808594 C 383.230469 210.808594 384.316406 211.894531 384.316406 213.234375 Z M 384.316406 213.234375 "/>
<path fill-rule="nonzero" fill="rgb(0%, 0%, 0%)" fill-opacity="1" d="M 391.515625 213.234375 C 391.515625 214.570312 390.429688 215.65625 389.09375 215.65625 C 387.753906 215.65625 386.671875 214.570312 386.671875 213.234375 C 386.671875 211.894531 387.753906 210.808594 389.09375 210.808594 C 390.429688 210.808594 391.515625 211.894531 391.515625 213.234375 Z M 391.515625 213.234375 "/>
<path fill-rule="nonzero" fill="rgb(0%, 0%, 0%)" fill-opacity="1" d="M 369.914062 213.234375 C 369.914062 214.570312 368.832031 215.65625 367.492188 215.65625 C 366.15625 215.65625 365.070312 214.570312 365.070312 213.234375 C 365.070312 211.894531 366.15625 210.808594 367.492188 210.808594 C 368.832031 210.808594 369.914062 211.894531 369.914062 213.234375 Z M 369.914062 213.234375 "/>
<path fill-rule="nonzero" fill="rgb(0%, 0%, 0%)" fill-opacity="1" d="M 377.113281 213.234375 C 377.113281 214.570312 376.03125 215.65625 374.691406 215.65625 C 373.355469 215.65625 372.269531 214.570312 372.269531 213.234375 C 372.269531 211.894531 373.355469 210.808594 374.691406 210.808594 C 376.03125 210.808594 377.113281 211.894531 377.113281 213.234375 Z M 377.113281 213.234375 "/>
<path fill-rule="nonzero" fill="rgb(0%, 0%, 0%)" fill-opacity="1" d="M 362.714844 213.234375 C 362.714844 214.570312 361.628906 215.65625 360.292969 215.65625 C 358.953125 215.65625 357.871094 214.570312 357.871094 213.234375 C 357.871094 211.894531 358.953125 210.808594 360.292969 210.808594 C 361.628906 210.808594 362.714844 211.894531 362.714844 213.234375 Z M 362.714844 213.234375 "/>
<path fill-rule="nonzero" fill="rgb(100%, 100%, 100%)" fill-opacity="1" d="M 351.40625 389.765625 C 351.40625 390.789062 350.574219 391.621094 349.550781 391.621094 C 348.53125 391.621094 347.699219 390.789062 347.699219 389.765625 C 347.699219 388.746094 348.53125 387.914062 349.550781 387.914062 C 350.574219 387.914062 351.40625 388.746094 351.40625 389.765625 Z M 351.40625 389.765625 "/>
<path fill-rule="nonzero" fill="rgb(100%, 100%, 100%)" fill-opacity="1" d="M 382.589844 351.203125 C 382.589844 352.226562 381.761719 353.054688 380.738281 353.054688 C 379.714844 353.054688 378.886719 352.226562 378.886719 351.203125 C 378.886719 350.179688 379.714844 349.351562 380.738281 349.351562 C 381.761719 349.351562 382.589844 350.179688 382.589844 351.203125 Z M 382.589844 351.203125 "/>
<path fill-rule="nonzero" fill="rgb(100%, 100%, 100%)" fill-opacity="1" d="M 379.753906 389.765625 C 379.753906 390.789062 378.925781 391.621094 377.902344 391.621094 C 376.878906 391.621094 376.050781 390.789062 376.050781 389.765625 C 376.050781 388.746094 376.878906 387.914062 377.902344 387.914062 C 378.925781 387.914062 379.753906 388.746094 379.753906 389.765625 Z M 379.753906 389.765625 "/>
<path fill-rule="nonzero" fill="rgb(100%, 100%, 100%)" fill-opacity="1" d="M 365.578125 389.765625 C 365.578125 390.789062 364.75 391.621094 363.726562 391.621094 C 362.703125 391.621094 361.875 390.789062 361.875 389.765625 C 361.875 388.746094 362.703125 387.914062 363.726562 387.914062 C 364.75 387.914062 365.578125 388.746094 365.578125 389.765625 Z M 365.578125 389.765625 "/>
<path fill-rule="nonzero" fill="rgb(100%, 100%, 100%)" fill-opacity="1" d="M 348.433594 351.066406 C 348.433594 352.089844 347.605469 352.921875 346.582031 352.921875 C 345.558594 352.921875 344.730469 352.089844 344.730469 351.066406 C 344.730469 350.042969 345.558594 349.214844 346.582031 349.214844 C 347.605469 349.214844 348.433594 350.042969 348.433594 351.066406 Z M 348.433594 351.066406 "/>
<path fill-rule="nonzero" fill="rgb(100%, 100%, 100%)" fill-opacity="1" d="M 406.664062 347.707031 C 406.664062 348.300781 406.183594 348.78125 405.59375 348.78125 C 405 348.78125 404.519531 348.300781 404.519531 347.707031 C 404.519531 347.113281 405 346.636719 405.59375 346.636719 C 406.183594 346.636719 406.664062 347.113281 406.664062 347.707031 Z M 406.664062 347.707031 "/>
<path fill-rule="nonzero" fill="rgb(100%, 100%, 100%)" fill-opacity="1" d="M 403.066406 347.707031 C 403.066406 348.300781 402.585938 348.78125 401.992188 348.78125 C 401.398438 348.78125 400.921875 348.300781 400.921875 347.707031 C 400.921875 347.113281 401.398438 346.636719 401.992188 346.636719 C 402.585938 346.636719 403.066406 347.113281 403.066406 347.707031 Z M 403.066406 347.707031 "/>
<path fill-rule="nonzero" fill="rgb(100%, 100%, 100%)" fill-opacity="1" d="M 416.039062 389.765625 C 416.039062 390.789062 415.210938 391.621094 414.1875 391.621094 C 413.164062 391.621094 412.335938 390.789062 412.335938 389.765625 C 412.335938 388.746094 413.164062 387.914062 414.1875 387.914062 C 415.210938 387.914062 416.039062 388.746094 416.039062 389.765625 Z M 416.039062 389.765625 "/>
<path fill-rule="nonzero" fill="rgb(100%, 100%, 100%)" fill-opacity="1" d="M 437.414062 349.746094 C 437.414062 350.339844 436.933594 350.820312 436.34375 350.820312 C 435.75 350.820312 435.269531 350.339844 435.269531 349.746094 C 435.269531 349.15625 435.75 348.675781 436.34375 348.675781 C 436.933594 348.675781 437.414062 349.15625 437.414062 349.746094 Z M 437.414062 349.746094 "/>
<path fill-rule="nonzero" fill="rgb(100%, 100%, 100%)" fill-opacity="1" d="M 441.015625 349.746094 C 441.015625 350.339844 440.535156 350.820312 439.941406 350.820312 C 439.351562 350.820312 438.871094 350.339844 438.871094 349.746094 C 438.871094 349.15625 439.351562 348.675781 439.941406 348.675781 C 440.535156 348.675781 441.015625 349.15625 441.015625 349.746094 Z M 441.015625 349.746094 "/>
<path fill-rule="nonzero" fill="rgb(100%, 100%, 100%)" fill-opacity="1" d="M 410.265625 347.707031 C 410.265625 348.300781 409.785156 348.78125 409.191406 348.78125 C 408.601562 348.78125 408.121094 348.300781 408.121094 347.707031 C 408.121094 347.113281 408.601562 346.636719 409.191406 346.636719 C 409.785156 346.636719 410.265625 347.113281 410.265625 347.707031 Z M 410.265625 347.707031 "/>
<path fill-rule="nonzero" fill="rgb(100%, 100%, 100%)" fill-opacity="1" d="M 430.199219 389.765625 C 430.199219 390.789062 429.371094 391.621094 428.347656 391.621094 C 427.324219 391.621094 426.496094 390.789062 426.496094 389.765625 C 426.496094 388.746094 427.324219 387.914062 428.347656 387.914062 C 429.371094 387.914062 430.199219 388.746094 430.199219 389.765625 Z M 430.199219 389.765625 "/>
<path fill-rule="nonzero" fill="rgb(100%, 100%, 100%)" fill-opacity="1" d="M 433.816406 349.746094 C 433.816406 350.339844 433.335938 350.820312 432.742188 350.820312 C 432.148438 350.820312 431.671875 350.339844 431.671875 349.746094 C 431.671875 349.15625 432.148438 348.675781 432.742188 348.675781 C 433.335938 348.675781 433.816406 349.15625 433.816406 349.746094 Z M 433.816406 349.746094 "/>
<path fill-rule="nonzero" fill="rgb(100%, 100%, 100%)" fill-opacity="1" d="M 463.515625 294.203125 C 463.515625 295.066406 462.8125 295.769531 461.949219 295.769531 C 461.082031 295.769531 460.378906 295.066406 460.378906 294.203125 C 460.378906 293.335938 461.082031 292.636719 461.949219 292.636719 C 462.8125 292.636719 463.515625 293.335938 463.515625 294.203125 Z M 463.515625 294.203125 "/>
<path fill-rule="nonzero" fill="rgb(100%, 100%, 100%)" fill-opacity="1" d="M 496.484375 316.476562 C 496.484375 317.261719 495.851562 317.894531 495.066406 317.894531 C 494.285156 317.894531 493.648438 317.261719 493.648438 316.476562 C 493.648438 315.695312 494.285156 315.058594 495.066406 315.058594 C 495.851562 315.058594 496.484375 315.695312 496.484375 316.476562 Z M 496.484375 316.476562 "/>
<path fill-rule="nonzero" fill="rgb(100%, 100%, 100%)" fill-opacity="1" d="M 462.480469 316.476562 C 462.480469 317.261719 461.84375 317.894531 461.0625 317.894531 C 460.28125 317.894531 459.644531 317.261719 459.644531 316.476562 C 459.644531 315.695312 460.28125 315.058594 461.0625 315.058594 C 461.84375 315.058594 462.480469 315.695312 462.480469 316.476562 Z M 462.480469 316.476562 "/>
<path fill-rule="nonzero" fill="rgb(100%, 100%, 100%)" fill-opacity="1" d="M 480.058594 310.957031 C 480.058594 311.980469 479.230469 312.808594 478.207031 312.808594 C 477.183594 312.808594 476.355469 311.980469 476.355469 310.957031 C 476.355469 309.933594 477.183594 309.105469 478.207031 309.105469 C 479.230469 309.105469 480.058594 309.933594 480.058594 310.957031 Z M 480.058594 310.957031 "/>
<path fill-rule="nonzero" fill="rgb(100%, 100%, 100%)" fill-opacity="1" d="M 492.316406 294.203125 C 492.316406 295.066406 491.613281 295.769531 490.746094 295.769531 C 489.882812 295.769531 489.179688 295.066406 489.179688 294.203125 C 489.179688 293.335938 489.882812 292.636719 490.746094 292.636719 C 491.613281 292.636719 492.316406 293.335938 492.316406 294.203125 Z M 492.316406 294.203125 "/>
<path fill-rule="nonzero" fill="rgb(100%, 100%, 100%)" fill-opacity="1" d="M 437.625 312.953125 C 437.625 313.660156 437.050781 314.234375 436.34375 314.234375 C 435.632812 314.234375 435.058594 313.660156 435.058594 312.953125 C 435.058594 312.246094 435.632812 311.671875 436.34375 311.671875 C 437.050781 311.671875 437.625 312.246094 437.625 312.953125 Z M 437.625 312.953125 "/>
<path fill-rule="nonzero" fill="rgb(100%, 100%, 100%)" fill-opacity="1" d="M 406.875 312.953125 C 406.875 313.660156 406.300781 314.234375 405.59375 314.234375 C 404.882812 314.234375 404.308594 313.660156 404.308594 312.953125 C 404.308594 312.246094 404.882812 311.671875 405.59375 311.671875 C 406.300781 311.671875 406.875 312.246094 406.875 312.953125 Z M 406.875 312.953125 "/>
<path fill-rule="nonzero" fill="rgb(100%, 100%, 100%)" fill-opacity="1" d="M 427.425781 294.203125 C 427.425781 294.835938 426.910156 295.351562 426.277344 295.351562 C 425.644531 295.351562 425.128906 294.835938 425.128906 294.203125 C 425.128906 293.570312 425.644531 293.054688 426.277344 293.054688 C 426.910156 293.054688 427.425781 293.570312 427.425781 294.203125 Z M 427.425781 294.203125 "/>
<path fill-rule="nonzero" fill="rgb(100%, 100%, 100%)" fill-opacity="1" d="M 437.625 320.152344 C 437.625 320.859375 437.050781 321.433594 436.34375 321.433594 C 435.632812 321.433594 435.058594 320.859375 435.058594 320.152344 C 435.058594 319.445312 435.632812 318.871094 436.34375 318.871094 C 437.050781 318.871094 437.625 319.445312 437.625 320.152344 Z M 437.625 320.152344 "/>
<path fill-rule="nonzero" fill="rgb(100%, 100%, 100%)" fill-opacity="1" d="M 406.875 320.152344 C 406.875 320.859375 406.300781 321.433594 405.59375 321.433594 C 404.882812 321.433594 404.308594 320.859375 404.308594 320.152344 C 404.308594 319.445312 404.882812 318.871094 405.59375 318.871094 C 406.300781 318.871094 406.875 319.445312 406.875 320.152344 Z M 406.875 320.152344 "/>
<path fill-rule="nonzero" fill="rgb(100%, 100%, 100%)" fill-opacity="1" d="M 449.023438 294.203125 C 449.023438 294.835938 448.511719 295.351562 447.878906 295.351562 C 447.242188 295.351562 446.730469 294.835938 446.730469 294.203125 C 446.730469 293.570312 447.242188 293.054688 447.878906 293.054688 C 448.511719 293.054688 449.023438 293.570312 449.023438 294.203125 Z M 449.023438 294.203125 "/>
<path fill-rule="nonzero" fill="rgb(100%, 100%, 100%)" fill-opacity="1" d="M 414.226562 294.203125 C 414.226562 294.835938 413.710938 295.351562 413.078125 295.351562 C 412.445312 295.351562 411.929688 294.835938 411.929688 294.203125 C 411.929688 293.570312 412.445312 293.054688 413.078125 293.054688 C 413.710938 293.054688 414.226562 293.570312 414.226562 294.203125 Z M 414.226562 294.203125 "/>
<path fill-rule="nonzero" fill="rgb(100%, 100%, 100%)" fill-opacity="1" d="M 480.058594 389.765625 C 480.058594 390.789062 479.230469 391.621094 478.207031 391.621094 C 477.183594 391.621094 476.355469 390.789062 476.355469 389.765625 C 476.355469 388.746094 477.183594 387.914062 478.207031 387.914062 C 479.230469 387.914062 480.058594 388.746094 480.058594 389.765625 Z M 480.058594 389.765625 "/>
<path fill-rule="nonzero" fill="rgb(100%, 100%, 100%)" fill-opacity="1" d="M 465.886719 389.765625 C 465.886719 390.789062 465.054688 391.621094 464.03125 391.621094 C 463.007812 391.621094 462.179688 390.789062 462.179688 389.765625 C 462.179688 388.746094 463.007812 387.914062 464.03125 387.914062 C 465.054688 387.914062 465.886719 388.746094 465.886719 389.765625 Z M 465.886719 389.765625 "/>
<path fill-rule="nonzero" fill="rgb(100%, 100%, 100%)" fill-opacity="1" d="M 497.070312 351.203125 C 497.070312 352.226562 496.242188 353.054688 495.21875 353.054688 C 494.195312 353.054688 493.363281 352.226562 493.363281 351.203125 C 493.363281 350.179688 494.195312 349.351562 495.21875 349.351562 C 496.242188 349.351562 497.070312 350.179688 497.070312 351.203125 Z M 497.070312 351.203125 "/>
<path fill-rule="nonzero" fill="rgb(100%, 100%, 100%)" fill-opacity="1" d="M 462.914062 351.066406 C 462.914062 352.089844 462.085938 352.921875 461.0625 352.921875 C 460.039062 352.921875 459.210938 352.089844 459.210938 351.066406 C 459.210938 350.042969 460.039062 349.214844 461.0625 349.214844 C 462.085938 349.214844 462.914062 350.042969 462.914062 351.066406 Z M 462.914062 351.066406 "/>
<path fill-rule="nonzero" fill="rgb(100%, 100%, 100%)" fill-opacity="1" d="M 494.234375 389.765625 C 494.234375 390.789062 493.40625 391.621094 492.382812 391.621094 C 491.359375 391.621094 490.53125 390.789062 490.53125 389.765625 C 490.53125 388.746094 491.359375 387.914062 492.382812 387.914062 C 493.40625 387.914062 494.234375 388.746094 494.234375 389.765625 Z M 494.234375 389.765625 "/>
<path fill-rule="nonzero" fill="rgb(100%, 100%, 100%)" fill-opacity="1" d="M 350.175781 294.203125 C 350.175781 295.066406 349.472656 295.769531 348.609375 295.769531 C 347.742188 295.769531 347.039062 295.066406 347.039062 294.203125 C 347.039062 293.335938 347.742188 292.636719 348.609375 292.636719 C 349.472656 292.636719 350.175781 293.335938 350.175781 294.203125 Z M 350.175781 294.203125 "/>
<path fill-rule="nonzero" fill="rgb(100%, 100%, 100%)" fill-opacity="1" d="M 365.578125 310.957031 C 365.578125 311.980469 364.75 312.808594 363.726562 312.808594 C 362.703125 312.808594 361.875 311.980469 361.875 310.957031 C 361.875 309.933594 362.703125 309.105469 363.726562 309.105469 C 364.75 309.105469 365.578125 309.933594 365.578125 310.957031 Z M 365.578125 310.957031 "/>
<path fill-rule="nonzero" fill="rgb(100%, 100%, 100%)" fill-opacity="1" d="M 348 316.476562 C 348 317.261719 347.367188 317.894531 346.582031 317.894531 C 345.800781 317.894531 345.164062 317.261719 345.164062 316.476562 C 345.164062 315.695312 345.800781 315.058594 346.582031 315.058594 C 347.367188 315.058594 348 315.695312 348 316.476562 Z M 348 316.476562 "/>
<path fill-rule="nonzero" fill="rgb(100%, 100%, 100%)" fill-opacity="1" d="M 382.003906 316.476562 C 382.003906 317.261719 381.371094 317.894531 380.585938 317.894531 C 379.804688 317.894531 379.171875 317.261719 379.171875 316.476562 C 379.171875 315.695312 379.804688 315.058594 380.585938 315.058594 C 381.371094 315.058594 382.003906 315.695312 382.003906 316.476562 Z M 382.003906 316.476562 "/>
<path fill-rule="nonzero" fill="rgb(100%, 100%, 100%)" fill-opacity="1" d="M 392.625 294.203125 C 392.625 294.835938 392.109375 295.351562 391.476562 295.351562 C 390.84375 295.351562 390.328125 294.835938 390.328125 294.203125 C 390.328125 293.570312 390.84375 293.054688 391.476562 293.054688 C 392.109375 293.054688 392.625 293.570312 392.625 294.203125 Z M 392.625 294.203125 "/>
<path fill-rule="nonzero" fill="rgb(100%, 100%, 100%)" fill-opacity="1" d="M 378.976562 294.203125 C 378.976562 295.066406 378.273438 295.769531 377.40625 295.769531 C 376.542969 295.769531 375.839844 295.066406 375.839844 294.203125 C 375.839844 293.335938 376.542969 292.636719 377.40625 292.636719 C 378.273438 292.636719 378.976562 293.335938 378.976562 294.203125 Z M 378.976562 294.203125 "/>
<path fill-rule="nonzero" fill="rgb(100%, 100%, 100%)" fill-opacity="1" d="M 404.910156 213.234375 C 404.910156 214.015625 404.273438 214.648438 403.492188 214.648438 C 402.710938 214.648438 402.074219 214.015625 402.074219 213.234375 C 402.074219 212.449219 402.710938 211.816406 403.492188 211.816406 C 404.273438 211.816406 404.910156 212.449219 404.910156 213.234375 Z M 404.910156 213.234375 "/>
<path fill-rule="nonzero" fill="rgb(100%, 100%, 100%)" fill-opacity="1" d="M 412.109375 213.234375 C 412.109375 214.015625 411.476562 214.648438 410.691406 214.648438 C 409.910156 214.648438 409.273438 214.015625 409.273438 213.234375 C 409.273438 212.449219 409.910156 211.816406 410.691406 211.816406 C 411.476562 211.816406 412.109375 212.449219 412.109375 213.234375 Z M 412.109375 213.234375 "/>
<path fill-rule="nonzero" fill="rgb(100%, 100%, 100%)" fill-opacity="1" d="M 426.511719 213.234375 C 426.511719 214.015625 425.875 214.648438 425.09375 214.648438 C 424.308594 214.648438 423.675781 214.015625 423.675781 213.234375 C 423.675781 212.449219 424.308594 211.816406 425.09375 211.816406 C 425.875 211.816406 426.511719 212.449219 426.511719 213.234375 Z M 426.511719 213.234375 "/>
<path fill-rule="nonzero" fill="rgb(100%, 100%, 100%)" fill-opacity="1" d="M 419.308594 213.234375 C 419.308594 214.015625 418.675781 214.648438 417.890625 214.648438 C 417.109375 214.648438 416.476562 214.015625 416.476562 213.234375 C 416.476562 212.449219 417.109375 211.816406 417.890625 211.816406 C 418.675781 211.816406 419.308594 212.449219 419.308594 213.234375 Z M 419.308594 213.234375 "/>
<path fill-rule="nonzero" fill="rgb(100%, 100%, 100%)" fill-opacity="1" d="M 397.710938 213.234375 C 397.710938 214.015625 397.074219 214.648438 396.292969 214.648438 C 395.507812 214.648438 394.875 214.015625 394.875 213.234375 C 394.875 212.449219 395.507812 211.816406 396.292969 211.816406 C 397.074219 211.816406 397.710938 212.449219 397.710938 213.234375 Z M 397.710938 213.234375 "/>
<path fill-rule="nonzero" fill="rgb(100%, 100%, 100%)" fill-opacity="1" d="M 491.308594 213.234375 C 491.308594 214.015625 490.675781 214.648438 489.890625 214.648438 C 489.109375 214.648438 488.476562 214.015625 488.476562 213.234375 C 488.476562 212.449219 489.109375 211.816406 489.890625 211.816406 C 490.675781 211.816406 491.308594 212.449219 491.308594 213.234375 Z M 491.308594 213.234375 "/>
<path fill-rule="nonzero" fill="rgb(100%, 100%, 100%)" fill-opacity="1" d="M 498.511719 213.234375 C 498.511719 214.015625 497.875 214.648438 497.09375 214.648438 C 496.308594 214.648438 495.675781 214.015625 495.675781 213.234375 C 495.675781 212.449219 496.308594 211.816406 497.09375 211.816406 C 497.875 211.816406 498.511719 212.449219 498.511719 213.234375 Z M 498.511719 213.234375 "/>
<path fill-rule="nonzero" fill="rgb(100%, 100%, 100%)" fill-opacity="1" d="M 484.109375 213.234375 C 484.109375 214.015625 483.476562 214.648438 482.691406 214.648438 C 481.910156 214.648438 481.273438 214.015625 481.273438 213.234375 C 481.273438 212.449219 481.910156 211.816406 482.691406 211.816406 C 483.476562 211.816406 484.109375 212.449219 484.109375 213.234375 Z M 484.109375 213.234375 "/>
<path fill-rule="nonzero" fill="rgb(100%, 100%, 100%)" fill-opacity="1" d="M 476.910156 213.234375 C 476.910156 214.015625 476.273438 214.648438 475.492188 214.648438 C 474.710938 214.648438 474.074219 214.015625 474.074219 213.234375 C 474.074219 212.449219 474.710938 211.816406 475.492188 211.816406 C 476.273438 211.816406 476.910156 212.449219 476.910156 213.234375 Z M 476.910156 213.234375 "/>
<path fill-rule="nonzero" fill="rgb(100%, 100%, 100%)" fill-opacity="1" d="M 469.710938 213.234375 C 469.710938 214.015625 469.074219 214.648438 468.292969 214.648438 C 467.507812 214.648438 466.875 214.015625 466.875 213.234375 C 466.875 212.449219 467.507812 211.816406 468.292969 211.816406 C 469.074219 211.816406 469.710938 212.449219 469.710938 213.234375 Z M 469.710938 213.234375 "/>
<path fill-rule="nonzero" fill="rgb(100%, 100%, 100%)" fill-opacity="1" d="M 462.433594 263.691406 C 462.433594 264.476562 461.800781 265.109375 461.015625 265.109375 C 460.234375 265.109375 459.601562 264.476562 459.601562 263.691406 C 459.601562 262.910156 460.234375 262.273438 461.015625 262.273438 C 461.800781 262.273438 462.433594 262.910156 462.433594 263.691406 Z M 462.433594 263.691406 "/>
<path fill-rule="nonzero" fill="rgb(100%, 100%, 100%)" fill-opacity="1" d="M 484.035156 263.691406 C 484.035156 264.476562 483.398438 265.109375 482.617188 265.109375 C 481.835938 265.109375 481.199219 264.476562 481.199219 263.691406 C 481.199219 262.910156 481.835938 262.273438 482.617188 262.273438 C 483.398438 262.273438 484.035156 262.910156 484.035156 263.691406 Z M 484.035156 263.691406 "/>
<path fill-rule="nonzero" fill="rgb(100%, 100%, 100%)" fill-opacity="1" d="M 491.234375 263.691406 C 491.234375 264.476562 490.601562 265.109375 489.816406 265.109375 C 489.035156 265.109375 488.398438 264.476562 488.398438 263.691406 C 488.398438 262.910156 489.035156 262.273438 489.816406 262.273438 C 490.601562 262.273438 491.234375 262.910156 491.234375 263.691406 Z M 491.234375 263.691406 "/>
<path fill-rule="nonzero" fill="rgb(100%, 100%, 100%)" fill-opacity="1" d="M 455.234375 263.691406 C 455.234375 264.476562 454.601562 265.109375 453.816406 265.109375 C 453.035156 265.109375 452.398438 264.476562 452.398438 263.691406 C 452.398438 262.910156 453.035156 262.273438 453.816406 262.273438 C 454.601562 262.273438 455.234375 262.910156 455.234375 263.691406 Z M 455.234375 263.691406 "/>
<path fill-rule="nonzero" fill="rgb(100%, 100%, 100%)" fill-opacity="1" d="M 469.636719 263.691406 C 469.636719 264.476562 469 265.109375 468.21875 265.109375 C 467.433594 265.109375 466.800781 264.476562 466.800781 263.691406 C 466.800781 262.910156 467.433594 262.273438 468.21875 262.273438 C 469 262.273438 469.636719 262.910156 469.636719 263.691406 Z M 469.636719 263.691406 "/>
<path fill-rule="nonzero" fill="rgb(100%, 100%, 100%)" fill-opacity="1" d="M 476.835938 263.691406 C 476.835938 264.476562 476.199219 265.109375 475.417969 265.109375 C 474.632812 265.109375 474 264.476562 474 263.691406 C 474 262.910156 474.632812 262.273438 475.417969 262.273438 C 476.199219 262.273438 476.835938 262.910156 476.835938 263.691406 Z M 476.835938 263.691406 "/>
<path fill-rule="nonzero" fill="rgb(100%, 100%, 100%)" fill-opacity="1" d="M 498.433594 263.691406 C 498.433594 264.476562 497.800781 265.109375 497.015625 265.109375 C 496.234375 265.109375 495.601562 264.476562 495.601562 263.691406 C 495.601562 262.910156 496.234375 262.273438 497.015625 262.273438 C 497.800781 262.273438 498.433594 262.910156 498.433594 263.691406 Z M 498.433594 263.691406 "/>
<path fill-rule="nonzero" fill="rgb(100%, 100%, 100%)" fill-opacity="1" d="M 440.835938 263.691406 C 440.835938 264.476562 440.199219 265.109375 439.417969 265.109375 C 438.632812 265.109375 438 264.476562 438 263.691406 C 438 262.910156 438.632812 262.273438 439.417969 262.273438 C 440.199219 262.273438 440.835938 262.910156 440.835938 263.691406 Z M 440.835938 263.691406 "/>
<path fill-rule="nonzero" fill="rgb(100%, 100%, 100%)" fill-opacity="1" d="M 404.835938 263.691406 C 404.835938 264.476562 404.199219 265.109375 403.417969 265.109375 C 402.632812 265.109375 402 264.476562 402 263.691406 C 402 262.910156 402.632812 262.273438 403.417969 262.273438 C 404.199219 262.273438 404.835938 262.910156 404.835938 263.691406 Z M 404.835938 263.691406 "/>
<path fill-rule="nonzero" fill="rgb(100%, 100%, 100%)" fill-opacity="1" d="M 412.035156 263.691406 C 412.035156 264.476562 411.398438 265.109375 410.617188 265.109375 C 409.835938 265.109375 409.199219 264.476562 409.199219 263.691406 C 409.199219 262.910156 409.835938 262.273438 410.617188 262.273438 C 411.398438 262.273438 412.035156 262.910156 412.035156 263.691406 Z M 412.035156 263.691406 "/>
<path fill-rule="nonzero" fill="rgb(100%, 100%, 100%)" fill-opacity="1" d="M 419.234375 263.691406 C 419.234375 264.476562 418.601562 265.109375 417.816406 265.109375 C 417.035156 265.109375 416.398438 264.476562 416.398438 263.691406 C 416.398438 262.910156 417.035156 262.273438 417.816406 262.273438 C 418.601562 262.273438 419.234375 262.910156 419.234375 263.691406 Z M 419.234375 263.691406 "/>
<path fill-rule="nonzero" fill="rgb(100%, 100%, 100%)" fill-opacity="1" d="M 426.433594 263.691406 C 426.433594 264.476562 425.800781 265.109375 425.015625 265.109375 C 424.234375 265.109375 423.601562 264.476562 423.601562 263.691406 C 423.601562 262.910156 424.234375 262.273438 425.015625 262.273438 C 425.800781 262.273438 426.433594 262.910156 426.433594 263.691406 Z M 426.433594 263.691406 "/>
<path fill-rule="nonzero" fill="rgb(100%, 100%, 100%)" fill-opacity="1" d="M 433.636719 263.691406 C 433.636719 264.476562 433 265.109375 432.21875 265.109375 C 431.433594 265.109375 430.800781 264.476562 430.800781 263.691406 C 430.800781 262.910156 431.433594 262.273438 432.21875 262.273438 C 433 262.273438 433.636719 262.910156 433.636719 263.691406 Z M 433.636719 263.691406 "/>
<path fill-rule="nonzero" fill="rgb(100%, 100%, 100%)" fill-opacity="1" d="M 448.035156 263.691406 C 448.035156 264.476562 447.398438 265.109375 446.617188 265.109375 C 445.835938 265.109375 445.199219 264.476562 445.199219 263.691406 C 445.199219 262.910156 445.835938 262.273438 446.617188 262.273438 C 447.398438 262.273438 448.035156 262.910156 448.035156 263.691406 Z M 448.035156 263.691406 "/>
<path fill-rule="nonzero" fill="rgb(100%, 100%, 100%)" fill-opacity="1" d="M 390.433594 263.691406 C 390.433594 264.476562 389.800781 265.109375 389.015625 265.109375 C 388.234375 265.109375 387.601562 264.476562 387.601562 263.691406 C 387.601562 262.910156 388.234375 262.273438 389.015625 262.273438 C 389.800781 262.273438 390.433594 262.910156 390.433594 263.691406 Z M 390.433594 263.691406 "/>
<path fill-rule="nonzero" fill="rgb(100%, 100%, 100%)" fill-opacity="1" d="M 376.035156 263.691406 C 376.035156 264.476562 375.398438 265.109375 374.617188 265.109375 C 373.835938 265.109375 373.199219 264.476562 373.199219 263.691406 C 373.199219 262.910156 373.835938 262.273438 374.617188 262.273438 C 375.398438 262.273438 376.035156 262.910156 376.035156 263.691406 Z M 376.035156 263.691406 "/>
<path fill-rule="nonzero" fill="rgb(100%, 100%, 100%)" fill-opacity="1" d="M 361.636719 263.691406 C 361.636719 264.476562 361 265.109375 360.21875 265.109375 C 359.433594 265.109375 358.800781 264.476562 358.800781 263.691406 C 358.800781 262.910156 359.433594 262.273438 360.21875 262.273438 C 361 262.273438 361.636719 262.910156 361.636719 263.691406 Z M 361.636719 263.691406 "/>
<path fill-rule="nonzero" fill="rgb(100%, 100%, 100%)" fill-opacity="1" d="M 368.835938 263.691406 C 368.835938 264.476562 368.199219 265.109375 367.417969 265.109375 C 366.632812 265.109375 366 264.476562 366 263.691406 C 366 262.910156 366.632812 262.273438 367.417969 262.273438 C 368.199219 262.273438 368.835938 262.910156 368.835938 263.691406 Z M 368.835938 263.691406 "/>
<path fill-rule="nonzero" fill="rgb(100%, 100%, 100%)" fill-opacity="1" d="M 383.234375 263.691406 C 383.234375 264.476562 382.601562 265.109375 381.816406 265.109375 C 381.035156 265.109375 380.398438 264.476562 380.398438 263.691406 C 380.398438 262.910156 381.035156 262.273438 381.816406 262.273438 C 382.601562 262.273438 383.234375 262.910156 383.234375 263.691406 Z M 383.234375 263.691406 "/>
<path fill-rule="nonzero" fill="rgb(100%, 100%, 100%)" fill-opacity="1" d="M 397.636719 263.691406 C 397.636719 264.476562 397 265.109375 396.21875 265.109375 C 395.433594 265.109375 394.800781 264.476562 394.800781 263.691406 C 394.800781 262.910156 395.433594 262.273438 396.21875 262.273438 C 397 262.273438 397.636719 262.910156 397.636719 263.691406 Z M 397.636719 263.691406 "/>
<path fill-rule="nonzero" fill="rgb(100%, 100%, 100%)" fill-opacity="1" d="M 448.109375 213.234375 C 448.109375 214.015625 447.476562 214.648438 446.691406 214.648438 C 445.910156 214.648438 445.273438 214.015625 445.273438 213.234375 C 445.273438 212.449219 445.910156 211.816406 446.691406 211.816406 C 447.476562 211.816406 448.109375 212.449219 448.109375 213.234375 Z M 448.109375 213.234375 "/>
<path fill-rule="nonzero" fill="rgb(100%, 100%, 100%)" fill-opacity="1" d="M 440.910156 213.234375 C 440.910156 214.015625 440.273438 214.648438 439.492188 214.648438 C 438.710938 214.648438 438.074219 214.015625 438.074219 213.234375 C 438.074219 212.449219 438.710938 211.816406 439.492188 211.816406 C 440.273438 211.816406 440.910156 212.449219 440.910156 213.234375 Z M 440.910156 213.234375 "/>
<path fill-rule="nonzero" fill="rgb(100%, 100%, 100%)" fill-opacity="1" d="M 462.511719 213.234375 C 462.511719 214.015625 461.875 214.648438 461.09375 214.648438 C 460.308594 214.648438 459.675781 214.015625 459.675781 213.234375 C 459.675781 212.449219 460.308594 211.816406 461.09375 211.816406 C 461.875 211.816406 462.511719 212.449219 462.511719 213.234375 Z M 462.511719 213.234375 "/>
<path fill-rule="nonzero" fill="rgb(100%, 100%, 100%)" fill-opacity="1" d="M 455.308594 213.234375 C 455.308594 214.015625 454.675781 214.648438 453.890625 214.648438 C 453.109375 214.648438 452.476562 214.015625 452.476562 213.234375 C 452.476562 212.449219 453.109375 211.816406 453.890625 211.816406 C 454.675781 211.816406 455.308594 212.449219 455.308594 213.234375 Z M 455.308594 213.234375 "/>
<path fill-rule="nonzero" fill="rgb(100%, 100%, 100%)" fill-opacity="1" d="M 433.710938 213.234375 C 433.710938 214.015625 433.074219 214.648438 432.292969 214.648438 C 431.507812 214.648438 430.875 214.015625 430.875 213.234375 C 430.875 212.449219 431.507812 211.816406 432.292969 211.816406 C 433.074219 211.816406 433.710938 212.449219 433.710938 213.234375 Z M 433.710938 213.234375 "/>
<path fill-rule="nonzero" fill="rgb(100%, 100%, 100%)" fill-opacity="1" d="M 383.308594 213.234375 C 383.308594 214.015625 382.675781 214.648438 381.890625 214.648438 C 381.109375 214.648438 380.476562 214.015625 380.476562 213.234375 C 380.476562 212.449219 381.109375 211.816406 381.890625 211.816406 C 382.675781 211.816406 383.308594 212.449219 383.308594 213.234375 Z M 383.308594 213.234375 "/>
<path fill-rule="nonzero" fill="rgb(100%, 100%, 100%)" fill-opacity="1" d="M 390.511719 213.234375 C 390.511719 214.015625 389.875 214.648438 389.09375 214.648438 C 388.308594 214.648438 387.675781 214.015625 387.675781 213.234375 C 387.675781 212.449219 388.308594 211.816406 389.09375 211.816406 C 389.875 211.816406 390.511719 212.449219 390.511719 213.234375 Z M 390.511719 213.234375 "/>
<path fill-rule="nonzero" fill="rgb(100%, 100%, 100%)" fill-opacity="1" d="M 368.910156 213.234375 C 368.910156 214.015625 368.273438 214.648438 367.492188 214.648438 C 366.710938 214.648438 366.074219 214.015625 366.074219 213.234375 C 366.074219 212.449219 366.710938 211.816406 367.492188 211.816406 C 368.273438 211.816406 368.910156 212.449219 368.910156 213.234375 Z M 368.910156 213.234375 "/>
<path fill-rule="nonzero" fill="rgb(100%, 100%, 100%)" fill-opacity="1" d="M 376.109375 213.234375 C 376.109375 214.015625 375.476562 214.648438 374.691406 214.648438 C 373.910156 214.648438 373.273438 214.015625 373.273438 213.234375 C 373.273438 212.449219 373.910156 211.816406 374.691406 211.816406 C 375.476562 211.816406 376.109375 212.449219 376.109375 213.234375 Z M 376.109375 213.234375 "/>
<path fill-rule="nonzero" fill="rgb(100%, 100%, 100%)" fill-opacity="1" d="M 361.710938 213.234375 C 361.710938 214.015625 361.074219 214.648438 360.292969 214.648438 C 359.507812 214.648438 358.875 214.015625 358.875 213.234375 C 358.875 212.449219 359.507812 211.816406 360.292969 211.816406 C 361.074219 211.816406 361.710938 212.449219 361.710938 213.234375 Z M 361.710938 213.234375 "/>
</svg>
